<svg xmlns="http://www.w3.org/2000/svg" width="600" height="490" viewBox="0 0 600 490">
<defs>
  <radialGradient id="pile" cx="0.5" cy="0.35" r="0.7"><stop offset="0" stop-color="#7d7a78"/><stop offset="1" stop-color="#2e2b29"/></radialGradient>
</defs>
<rect width="600" height="490" fill="#ffffff"/>
<ellipse cx="300" cy="380" rx="230" ry="44" fill="#000" opacity="0.12"/>
<path d="M90 380 Q300 120 510 380 Z" fill="url(#pile)"/>
<path d="M150 380 Q300 190 450 380 Z" fill="#fff" opacity="0.10"/>
<circle cx="127" cy="270" r="3.0" fill="#ffffff" opacity="0.23"/><circle cx="523" cy="83" r="1.1" fill="#ffffff" opacity="0.15"/><circle cx="255" cy="81" r="3.2" fill="#ffffff" opacity="0.24"/><circle cx="570" cy="13" r="1.1" fill="#ffffff" opacity="0.17"/><circle cx="201" cy="148" r="3.0" fill="#ffffff" opacity="0.28"/><circle cx="206" cy="286" r="3.3" fill="#ffffff" opacity="0.18"/><circle cx="292" cy="62" r="2.1" fill="#ffffff" opacity="0.28"/><circle cx="286" cy="94" r="1.4" fill="#ffffff" opacity="0.14"/><circle cx="207" cy="379" r="2.8" fill="#ffffff" opacity="0.28"/><circle cx="202" cy="194" r="1.4" fill="#ffffff" opacity="0.17"/><circle cx="182" cy="54" r="2.5" fill="#ffffff" opacity="0.33"/><circle cx="232" cy="355" r="1.3" fill="#ffffff" opacity="0.23"/><circle cx="363" cy="222" r="3.3" fill="#ffffff" opacity="0.17"/><circle cx="399" cy="72" r="2.3" fill="#ffffff" opacity="0.23"/><circle cx="521" cy="380" r="1.3" fill="#ffffff" opacity="0.17"/><circle cx="239" cy="231" r="1.4" fill="#ffffff" opacity="0.22"/><circle cx="3" cy="255" r="3.4" fill="#ffffff" opacity="0.32"/><circle cx="105" cy="17" r="2.3" fill="#ffffff" opacity="0.17"/><circle cx="209" cy="137" r="1.8" fill="#ffffff" opacity="0.32"/><circle cx="459" cy="109" r="3.1" fill="#ffffff" opacity="0.24"/><circle cx="544" cy="179" r="2.8" fill="#ffffff" opacity="0.30"/><circle cx="459" cy="215" r="1.7" fill="#ffffff" opacity="0.18"/><circle cx="157" cy="307" r="2.8" fill="#ffffff" opacity="0.33"/><circle cx="66" cy="366" r="3.0" fill="#ffffff" opacity="0.17"/><circle cx="117" cy="248" r="2.9" fill="#ffffff" opacity="0.35"/><circle cx="275" cy="199" r="3.2" fill="#ffffff" opacity="0.16"/><circle cx="183" cy="291" r="2.8" fill="#ffffff" opacity="0.23"/><circle cx="512" cy="135" r="3.0" fill="#ffffff" opacity="0.19"/><circle cx="155" cy="171" r="3.0" fill="#ffffff" opacity="0.24"/><circle cx="310" cy="156" r="2.5" fill="#ffffff" opacity="0.21"/><circle cx="138" cy="141" r="3.4" fill="#ffffff" opacity="0.32"/><circle cx="500" cy="84" r="2.9" fill="#ffffff" opacity="0.28"/><circle cx="10" cy="129" r="1.5" fill="#ffffff" opacity="0.32"/><circle cx="18" cy="216" r="1.7" fill="#ffffff" opacity="0.16"/><circle cx="390" cy="227" r="2.3" fill="#ffffff" opacity="0.30"/><circle cx="116" cy="3" r="2.3" fill="#ffffff" opacity="0.16"/><circle cx="547" cy="177" r="2.1" fill="#ffffff" opacity="0.34"/><circle cx="574" cy="118" r="3.2" fill="#ffffff" opacity="0.32"/><circle cx="539" cy="368" r="1.7" fill="#ffffff" opacity="0.22"/><circle cx="102" cy="296" r="1.2" fill="#ffffff" opacity="0.22"/><circle cx="336" cy="382" r="1.5" fill="#ffffff" opacity="0.34"/><circle cx="225" cy="28" r="1.6" fill="#ffffff" opacity="0.21"/><circle cx="120" cy="147" r="3.5" fill="#ffffff" opacity="0.26"/><circle cx="130" cy="85" r="2.5" fill="#ffffff" opacity="0.27"/><circle cx="274" cy="151" r="3.2" fill="#ffffff" opacity="0.34"/><circle cx="48" cy="151" r="2.6" fill="#ffffff" opacity="0.29"/><circle cx="202" cy="344" r="1.6" fill="#ffffff" opacity="0.34"/><circle cx="516" cy="302" r="2.0" fill="#ffffff" opacity="0.26"/><circle cx="322" cy="167" r="2.4" fill="#ffffff" opacity="0.19"/><circle cx="597" cy="378" r="2.6" fill="#ffffff" opacity="0.18"/><circle cx="524" cy="226" r="2.5" fill="#ffffff" opacity="0.23"/><circle cx="511" cy="11" r="3.3" fill="#ffffff" opacity="0.23"/><circle cx="595" cy="303" r="1.9" fill="#ffffff" opacity="0.22"/><circle cx="575" cy="72" r="2.5" fill="#ffffff" opacity="0.34"/><circle cx="81" cy="259" r="3.3" fill="#ffffff" opacity="0.15"/><circle cx="408" cy="186" r="1.1" fill="#ffffff" opacity="0.16"/><circle cx="499" cy="117" r="3.0" fill="#ffffff" opacity="0.20"/><circle cx="569" cy="208" r="1.2" fill="#ffffff" opacity="0.16"/><circle cx="63" cy="8" r="2.6" fill="#ffffff" opacity="0.21"/><circle cx="11" cy="119" r="2.3" fill="#ffffff" opacity="0.21"/><circle cx="47" cy="233" r="1.8" fill="#ffffff" opacity="0.16"/><circle cx="222" cy="347" r="1.3" fill="#ffffff" opacity="0.35"/><circle cx="410" cy="104" r="2.0" fill="#ffffff" opacity="0.18"/><circle cx="118" cy="198" r="2.8" fill="#ffffff" opacity="0.17"/><circle cx="494" cy="9" r="1.9" fill="#ffffff" opacity="0.23"/><circle cx="592" cy="354" r="2.5" fill="#ffffff" opacity="0.16"/><circle cx="103" cy="105" r="2.1" fill="#ffffff" opacity="0.32"/><circle cx="545" cy="157" r="2.0" fill="#ffffff" opacity="0.25"/><circle cx="330" cy="291" r="3.1" fill="#ffffff" opacity="0.24"/><circle cx="439" cy="275" r="1.7" fill="#ffffff" opacity="0.28"/><circle cx="240" cy="33" r="2.2" fill="#ffffff" opacity="0.35"/><circle cx="26" cy="379" r="2.8" fill="#ffffff" opacity="0.28"/><circle cx="545" cy="187" r="2.7" fill="#ffffff" opacity="0.17"/><circle cx="132" cy="94" r="3.2" fill="#ffffff" opacity="0.31"/><circle cx="330" cy="118" r="1.0" fill="#ffffff" opacity="0.23"/><circle cx="50" cy="43" r="3.1" fill="#ffffff" opacity="0.34"/><circle cx="6" cy="76" r="2.3" fill="#ffffff" opacity="0.30"/><circle cx="447" cy="228" r="3.4" fill="#ffffff" opacity="0.34"/><circle cx="222" cy="290" r="2.1" fill="#ffffff" opacity="0.27"/><circle cx="102" cy="247" r="1.3" fill="#ffffff" opacity="0.22"/><circle cx="38" cy="176" r="2.6" fill="#ffffff" opacity="0.22"/><circle cx="74" cy="5" r="1.7" fill="#ffffff" opacity="0.28"/><circle cx="112" cy="66" r="2.6" fill="#ffffff" opacity="0.27"/><circle cx="138" cy="264" r="2.7" fill="#ffffff" opacity="0.18"/><circle cx="244" cy="271" r="1.2" fill="#ffffff" opacity="0.31"/><circle cx="385" cy="323" r="2.8" fill="#ffffff" opacity="0.30"/><circle cx="455" cy="9" r="1.4" fill="#ffffff" opacity="0.14"/><circle cx="131" cy="103" r="2.2" fill="#ffffff" opacity="0.23"/><circle cx="500" cy="368" r="1.3" fill="#ffffff" opacity="0.29"/><circle cx="243" cy="226" r="3.1" fill="#ffffff" opacity="0.15"/><circle cx="594" cy="280" r="1.7" fill="#ffffff" opacity="0.16"/><circle cx="393" cy="173" r="2.1" fill="#ffffff" opacity="0.17"/><circle cx="256" cy="50" r="1.0" fill="#ffffff" opacity="0.33"/><circle cx="149" cy="71" r="2.6" fill="#ffffff" opacity="0.30"/><circle cx="115" cy="134" r="2.7" fill="#ffffff" opacity="0.21"/><circle cx="160" cy="140" r="2.6" fill="#ffffff" opacity="0.26"/><circle cx="379" cy="179" r="2.6" fill="#ffffff" opacity="0.27"/><circle cx="597" cy="128" r="1.9" fill="#ffffff" opacity="0.26"/><circle cx="19" cy="86" r="3.1" fill="#ffffff" opacity="0.23"/><circle cx="497" cy="313" r="2.6" fill="#ffffff" opacity="0.18"/><circle cx="333" cy="113" r="3.4" fill="#ffffff" opacity="0.17"/><circle cx="593" cy="387" r="1.4" fill="#ffffff" opacity="0.17"/><circle cx="332" cy="188" r="3.0" fill="#ffffff" opacity="0.22"/><circle cx="346" cy="64" r="2.4" fill="#ffffff" opacity="0.15"/><circle cx="161" cy="11" r="1.6" fill="#ffffff" opacity="0.28"/><circle cx="288" cy="21" r="3.1" fill="#ffffff" opacity="0.22"/><circle cx="59" cy="248" r="1.3" fill="#ffffff" opacity="0.22"/><circle cx="506" cy="63" r="3.0" fill="#ffffff" opacity="0.27"/><circle cx="295" cy="304" r="1.4" fill="#ffffff" opacity="0.33"/><circle cx="341" cy="168" r="3.3" fill="#ffffff" opacity="0.14"/><circle cx="72" cy="282" r="2.1" fill="#ffffff" opacity="0.34"/><circle cx="302" cy="184" r="3.4" fill="#ffffff" opacity="0.27"/><circle cx="202" cy="268" r="2.2" fill="#ffffff" opacity="0.17"/><circle cx="2" cy="293" r="2.3" fill="#ffffff" opacity="0.20"/><circle cx="321" cy="321" r="2.8" fill="#ffffff" opacity="0.32"/><circle cx="257" cy="3" r="2.7" fill="#ffffff" opacity="0.24"/><circle cx="348" cy="314" r="3.3" fill="#ffffff" opacity="0.17"/><circle cx="36" cy="190" r="1.7" fill="#ffffff" opacity="0.27"/><circle cx="351" cy="67" r="2.4" fill="#ffffff" opacity="0.28"/><circle cx="389" cy="357" r="2.4" fill="#ffffff" opacity="0.20"/><circle cx="76" cy="50" r="1.9" fill="#ffffff" opacity="0.29"/><circle cx="576" cy="171" r="2.2" fill="#ffffff" opacity="0.17"/><circle cx="162" cy="192" r="2.3" fill="#ffffff" opacity="0.33"/><circle cx="503" cy="328" r="1.1" fill="#ffffff" opacity="0.19"/><circle cx="122" cy="347" r="1.2" fill="#ffffff" opacity="0.24"/><circle cx="54" cy="273" r="1.9" fill="#ffffff" opacity="0.30"/><circle cx="241" cy="22" r="2.9" fill="#ffffff" opacity="0.26"/><circle cx="207" cy="106" r="1.4" fill="#ffffff" opacity="0.32"/><circle cx="54" cy="376" r="1.6" fill="#ffffff" opacity="0.17"/><circle cx="35" cy="105" r="2.6" fill="#ffffff" opacity="0.33"/><circle cx="61" cy="176" r="2.3" fill="#ffffff" opacity="0.32"/><circle cx="256" cy="361" r="1.8" fill="#ffffff" opacity="0.21"/><circle cx="401" cy="31" r="1.6" fill="#ffffff" opacity="0.19"/><circle cx="173" cy="84" r="2.0" fill="#ffffff" opacity="0.19"/><circle cx="408" cy="353" r="1.5" fill="#ffffff" opacity="0.14"/><circle cx="117" cy="219" r="3.3" fill="#ffffff" opacity="0.29"/><circle cx="157" cy="249" r="2.1" fill="#ffffff" opacity="0.33"/><circle cx="307" cy="194" r="3.0" fill="#ffffff" opacity="0.19"/><circle cx="392" cy="43" r="2.6" fill="#ffffff" opacity="0.24"/><circle cx="169" cy="218" r="2.6" fill="#ffffff" opacity="0.17"/><circle cx="570" cy="223" r="2.1" fill="#ffffff" opacity="0.24"/><circle cx="474" cy="67" r="2.8" fill="#ffffff" opacity="0.14"/><circle cx="150" cy="18" r="2.8" fill="#ffffff" opacity="0.33"/><circle cx="341" cy="365" r="2.4" fill="#ffffff" opacity="0.16"/><circle cx="14" cy="325" r="1.9" fill="#ffffff" opacity="0.23"/><circle cx="355" cy="336" r="2.9" fill="#ffffff" opacity="0.28"/><circle cx="557" cy="267" r="3.3" fill="#ffffff" opacity="0.24"/><circle cx="88" cy="105" r="3.2" fill="#ffffff" opacity="0.29"/><circle cx="429" cy="387" r="1.9" fill="#ffffff" opacity="0.22"/><circle cx="389" cy="214" r="3.2" fill="#ffffff" opacity="0.33"/><circle cx="77" cy="69" r="1.3" fill="#ffffff" opacity="0.18"/><circle cx="313" cy="375" r="2.5" fill="#ffffff" opacity="0.18"/><circle cx="374" cy="124" r="2.6" fill="#ffffff" opacity="0.29"/><circle cx="522" cy="117" r="1.1" fill="#ffffff" opacity="0.24"/><circle cx="142" cy="357" r="3.2" fill="#ffffff" opacity="0.15"/><circle cx="359" cy="357" r="1.3" fill="#ffffff" opacity="0.33"/><circle cx="253" cy="92" r="1.7" fill="#ffffff" opacity="0.20"/><circle cx="126" cy="322" r="1.6" fill="#ffffff" opacity="0.34"/><circle cx="442" cy="335" r="1.5" fill="#ffffff" opacity="0.16"/><circle cx="277" cy="211" r="2.3" fill="#ffffff" opacity="0.17"/><circle cx="587" cy="18" r="1.3" fill="#ffffff" opacity="0.31"/><circle cx="563" cy="153" r="2.9" fill="#ffffff" opacity="0.23"/><circle cx="259" cy="244" r="3.5" fill="#ffffff" opacity="0.24"/><circle cx="337" cy="141" r="1.9" fill="#ffffff" opacity="0.31"/><circle cx="327" cy="148" r="1.5" fill="#ffffff" opacity="0.26"/><circle cx="89" cy="229" r="1.8" fill="#ffffff" opacity="0.15"/><circle cx="576" cy="300" r="1.4" fill="#ffffff" opacity="0.21"/><circle cx="231" cy="135" r="2.9" fill="#ffffff" opacity="0.34"/><circle cx="126" cy="259" r="1.6" fill="#ffffff" opacity="0.21"/><circle cx="524" cy="45" r="1.0" fill="#ffffff" opacity="0.26"/><circle cx="479" cy="331" r="2.9" fill="#ffffff" opacity="0.21"/><circle cx="261" cy="244" r="1.1" fill="#ffffff" opacity="0.31"/><circle cx="108" cy="216" r="2.6" fill="#ffffff" opacity="0.24"/><circle cx="192" cy="220" r="1.8" fill="#ffffff" opacity="0.16"/><circle cx="200" cy="94" r="2.0" fill="#ffffff" opacity="0.25"/><circle cx="272" cy="343" r="2.2" fill="#ffffff" opacity="0.14"/><circle cx="426" cy="236" r="1.8" fill="#ffffff" opacity="0.25"/><circle cx="136" cy="322" r="1.4" fill="#ffffff" opacity="0.25"/><circle cx="364" cy="55" r="1.1" fill="#ffffff" opacity="0.29"/><circle cx="499" cy="53" r="2.7" fill="#ffffff" opacity="0.19"/><circle cx="411" cy="33" r="1.4" fill="#ffffff" opacity="0.35"/><circle cx="548" cy="114" r="3.0" fill="#ffffff" opacity="0.32"/><circle cx="231" cy="138" r="2.6" fill="#ffffff" opacity="0.20"/><circle cx="380" cy="83" r="1.5" fill="#ffffff" opacity="0.15"/><circle cx="526" cy="92" r="1.5" fill="#ffffff" opacity="0.23"/><circle cx="34" cy="285" r="2.6" fill="#ffffff" opacity="0.21"/><circle cx="69" cy="158" r="3.0" fill="#ffffff" opacity="0.22"/><circle cx="177" cy="132" r="2.4" fill="#ffffff" opacity="0.24"/><circle cx="499" cy="289" r="1.6" fill="#ffffff" opacity="0.19"/><circle cx="237" cy="134" r="2.6" fill="#ffffff" opacity="0.34"/><circle cx="254" cy="388" r="2.1" fill="#ffffff" opacity="0.22"/><circle cx="288" cy="370" r="2.5" fill="#ffffff" opacity="0.29"/><circle cx="545" cy="23" r="2.4" fill="#ffffff" opacity="0.30"/><circle cx="199" cy="283" r="2.3" fill="#ffffff" opacity="0.32"/><circle cx="416" cy="92" r="1.0" fill="#ffffff" opacity="0.20"/><circle cx="49" cy="29" r="1.2" fill="#ffffff" opacity="0.28"/><circle cx="573" cy="373" r="3.0" fill="#ffffff" opacity="0.14"/><circle cx="23" cy="18" r="1.2" fill="#ffffff" opacity="0.22"/><circle cx="284" cy="23" r="1.2" fill="#ffffff" opacity="0.14"/><circle cx="253" cy="367" r="2.1" fill="#ffffff" opacity="0.34"/><circle cx="509" cy="184" r="1.1" fill="#ffffff" opacity="0.22"/><circle cx="535" cy="324" r="2.3" fill="#ffffff" opacity="0.34"/><circle cx="555" cy="286" r="1.5" fill="#ffffff" opacity="0.31"/><circle cx="115" cy="32" r="3.4" fill="#ffffff" opacity="0.30"/><circle cx="162" cy="104" r="3.4" fill="#ffffff" opacity="0.19"/><circle cx="41" cy="4" r="3.0" fill="#ffffff" opacity="0.22"/><circle cx="313" cy="180" r="3.4" fill="#ffffff" opacity="0.22"/><circle cx="588" cy="134" r="1.4" fill="#ffffff" opacity="0.30"/><circle cx="542" cy="97" r="1.6" fill="#ffffff" opacity="0.34"/><circle cx="424" cy="99" r="1.0" fill="#ffffff" opacity="0.27"/><circle cx="243" cy="390" r="2.5" fill="#ffffff" opacity="0.14"/><circle cx="550" cy="215" r="2.5" fill="#ffffff" opacity="0.25"/><circle cx="244" cy="309" r="1.2" fill="#ffffff" opacity="0.33"/><circle cx="272" cy="385" r="1.3" fill="#ffffff" opacity="0.29"/><circle cx="194" cy="90" r="3.4" fill="#ffffff" opacity="0.26"/><circle cx="249" cy="204" r="3.5" fill="#ffffff" opacity="0.19"/><circle cx="140" cy="265" r="3.1" fill="#ffffff" opacity="0.20"/><circle cx="49" cy="284" r="2.2" fill="#ffffff" opacity="0.25"/><circle cx="401" cy="271" r="2.2" fill="#ffffff" opacity="0.30"/><circle cx="124" cy="135" r="2.6" fill="#ffffff" opacity="0.33"/><circle cx="97" cy="259" r="3.5" fill="#ffffff" opacity="0.28"/><circle cx="520" cy="135" r="2.0" fill="#ffffff" opacity="0.18"/><circle cx="388" cy="318" r="1.9" fill="#ffffff" opacity="0.24"/><circle cx="136" cy="78" r="3.1" fill="#ffffff" opacity="0.19"/><circle cx="396" cy="162" r="1.8" fill="#ffffff" opacity="0.29"/><circle cx="130" cy="206" r="3.3" fill="#ffffff" opacity="0.29"/><circle cx="281" cy="268" r="2.1" fill="#ffffff" opacity="0.29"/><circle cx="95" cy="79" r="1.1" fill="#ffffff" opacity="0.21"/><circle cx="365" cy="67" r="1.2" fill="#ffffff" opacity="0.21"/><circle cx="165" cy="257" r="2.0" fill="#ffffff" opacity="0.17"/><circle cx="226" cy="322" r="3.5" fill="#ffffff" opacity="0.17"/><circle cx="385" cy="2" r="1.3" fill="#ffffff" opacity="0.33"/><circle cx="486" cy="76" r="2.6" fill="#ffffff" opacity="0.17"/><circle cx="341" cy="267" r="2.1" fill="#ffffff" opacity="0.25"/><circle cx="174" cy="208" r="1.9" fill="#ffffff" opacity="0.21"/><circle cx="565" cy="385" r="2.4" fill="#ffffff" opacity="0.15"/><circle cx="62" cy="215" r="2.4" fill="#ffffff" opacity="0.20"/><circle cx="103" cy="212" r="2.9" fill="#ffffff" opacity="0.24"/><circle cx="306" cy="100" r="2.0" fill="#ffffff" opacity="0.34"/><circle cx="201" cy="62" r="1.7" fill="#ffffff" opacity="0.29"/><circle cx="549" cy="358" r="3.4" fill="#ffffff" opacity="0.33"/><circle cx="311" cy="63" r="3.3" fill="#ffffff" opacity="0.16"/><circle cx="409" cy="360" r="2.3" fill="#ffffff" opacity="0.23"/><circle cx="146" cy="272" r="3.2" fill="#ffffff" opacity="0.14"/><circle cx="594" cy="200" r="2.4" fill="#ffffff" opacity="0.31"/><circle cx="549" cy="384" r="1.0" fill="#ffffff" opacity="0.27"/><circle cx="581" cy="268" r="3.3" fill="#ffffff" opacity="0.32"/><circle cx="588" cy="233" r="1.8" fill="#ffffff" opacity="0.18"/><circle cx="326" cy="273" r="2.9" fill="#ffffff" opacity="0.32"/><circle cx="367" cy="77" r="2.0" fill="#ffffff" opacity="0.25"/><circle cx="447" cy="12" r="1.9" fill="#ffffff" opacity="0.35"/><circle cx="240" cy="82" r="3.2" fill="#ffffff" opacity="0.14"/><circle cx="35" cy="167" r="2.9" fill="#ffffff" opacity="0.27"/><circle cx="282" cy="303" r="1.3" fill="#ffffff" opacity="0.30"/><circle cx="70" cy="156" r="2.8" fill="#ffffff" opacity="0.20"/><circle cx="179" cy="45" r="2.6" fill="#ffffff" opacity="0.30"/><circle cx="128" cy="15" r="1.7" fill="#ffffff" opacity="0.23"/><circle cx="517" cy="234" r="2.8" fill="#ffffff" opacity="0.15"/><circle cx="411" cy="219" r="2.2" fill="#ffffff" opacity="0.33"/><circle cx="178" cy="387" r="2.2" fill="#ffffff" opacity="0.34"/><circle cx="127" cy="90" r="1.8" fill="#ffffff" opacity="0.23"/><circle cx="346" cy="98" r="2.7" fill="#ffffff" opacity="0.25"/><circle cx="597" cy="295" r="2.3" fill="#ffffff" opacity="0.15"/><circle cx="24" cy="235" r="1.7" fill="#ffffff" opacity="0.17"/><circle cx="256" cy="290" r="2.2" fill="#ffffff" opacity="0.25"/><circle cx="189" cy="211" r="2.6" fill="#ffffff" opacity="0.15"/><circle cx="131" cy="350" r="3.5" fill="#ffffff" opacity="0.17"/><circle cx="117" cy="218" r="2.7" fill="#ffffff" opacity="0.35"/><circle cx="485" cy="284" r="2.3" fill="#ffffff" opacity="0.28"/><circle cx="551" cy="62" r="2.4" fill="#ffffff" opacity="0.17"/><circle cx="580" cy="86" r="1.3" fill="#ffffff" opacity="0.35"/><circle cx="426" cy="351" r="2.7" fill="#ffffff" opacity="0.18"/><circle cx="126" cy="248" r="1.4" fill="#ffffff" opacity="0.19"/><circle cx="425" cy="243" r="3.1" fill="#ffffff" opacity="0.22"/><circle cx="442" cy="67" r="2.9" fill="#ffffff" opacity="0.26"/><circle cx="133" cy="106" r="2.1" fill="#ffffff" opacity="0.32"/><circle cx="567" cy="301" r="3.1" fill="#ffffff" opacity="0.23"/><circle cx="584" cy="371" r="1.6" fill="#ffffff" opacity="0.19"/><circle cx="372" cy="146" r="2.5" fill="#ffffff" opacity="0.28"/><circle cx="90" cy="242" r="2.0" fill="#ffffff" opacity="0.27"/><circle cx="456" cy="179" r="2.4" fill="#ffffff" opacity="0.32"/><circle cx="404" cy="347" r="2.9" fill="#ffffff" opacity="0.16"/><circle cx="565" cy="245" r="2.5" fill="#ffffff" opacity="0.23"/><circle cx="228" cy="55" r="2.4" fill="#ffffff" opacity="0.34"/><circle cx="528" cy="371" r="2.6" fill="#ffffff" opacity="0.35"/><circle cx="182" cy="318" r="3.3" fill="#ffffff" opacity="0.27"/><circle cx="40" cy="366" r="1.7" fill="#ffffff" opacity="0.23"/><circle cx="393" cy="157" r="3.1" fill="#ffffff" opacity="0.19"/><circle cx="164" cy="28" r="1.3" fill="#ffffff" opacity="0.23"/><circle cx="388" cy="154" r="1.8" fill="#ffffff" opacity="0.32"/><circle cx="413" cy="117" r="2.1" fill="#ffffff" opacity="0.18"/><circle cx="250" cy="230" r="3.1" fill="#ffffff" opacity="0.28"/><circle cx="45" cy="288" r="2.7" fill="#ffffff" opacity="0.14"/><circle cx="96" cy="182" r="1.6" fill="#ffffff" opacity="0.18"/><circle cx="150" cy="264" r="2.8" fill="#ffffff" opacity="0.31"/><circle cx="68" cy="196" r="3.5" fill="#ffffff" opacity="0.27"/><circle cx="572" cy="289" r="3.2" fill="#ffffff" opacity="0.15"/><circle cx="54" cy="387" r="3.1" fill="#ffffff" opacity="0.18"/><circle cx="466" cy="145" r="1.9" fill="#ffffff" opacity="0.21"/><circle cx="413" cy="157" r="1.5" fill="#ffffff" opacity="0.24"/><circle cx="6" cy="111" r="2.8" fill="#ffffff" opacity="0.14"/><circle cx="116" cy="187" r="3.2" fill="#ffffff" opacity="0.25"/><circle cx="315" cy="356" r="2.4" fill="#ffffff" opacity="0.25"/><circle cx="160" cy="190" r="1.1" fill="#ffffff" opacity="0.15"/><circle cx="405" cy="109" r="1.5" fill="#ffffff" opacity="0.18"/><circle cx="384" cy="166" r="1.1" fill="#ffffff" opacity="0.18"/><circle cx="173" cy="308" r="1.2" fill="#ffffff" opacity="0.29"/><circle cx="107" cy="278" r="3.4" fill="#ffffff" opacity="0.28"/><circle cx="356" cy="218" r="3.1" fill="#ffffff" opacity="0.28"/><circle cx="469" cy="227" r="2.7" fill="#ffffff" opacity="0.31"/><circle cx="320" cy="105" r="1.2" fill="#ffffff" opacity="0.24"/><circle cx="369" cy="249" r="2.1" fill="#ffffff" opacity="0.26"/><circle cx="296" cy="3" r="3.4" fill="#ffffff" opacity="0.26"/><circle cx="311" cy="85" r="1.9" fill="#ffffff" opacity="0.25"/><circle cx="244" cy="3" r="3.1" fill="#ffffff" opacity="0.17"/><circle cx="348" cy="68" r="2.9" fill="#ffffff" opacity="0.23"/><circle cx="201" cy="65" r="1.3" fill="#ffffff" opacity="0.33"/><circle cx="509" cy="68" r="2.4" fill="#ffffff" opacity="0.26"/><circle cx="427" cy="297" r="2.3" fill="#ffffff" opacity="0.25"/><circle cx="94" cy="332" r="2.7" fill="#ffffff" opacity="0.26"/><circle cx="439" cy="309" r="2.0" fill="#ffffff" opacity="0.22"/><circle cx="436" cy="128" r="1.3" fill="#ffffff" opacity="0.33"/><circle cx="2" cy="246" r="3.4" fill="#ffffff" opacity="0.34"/><circle cx="126" cy="380" r="3.4" fill="#ffffff" opacity="0.23"/><circle cx="350" cy="2" r="1.5" fill="#ffffff" opacity="0.21"/><circle cx="194" cy="50" r="1.3" fill="#ffffff" opacity="0.30"/><circle cx="1" cy="72" r="3.3" fill="#ffffff" opacity="0.15"/><circle cx="538" cy="108" r="1.6" fill="#ffffff" opacity="0.28"/><circle cx="79" cy="57" r="1.1" fill="#ffffff" opacity="0.27"/><circle cx="560" cy="259" r="1.9" fill="#ffffff" opacity="0.30"/><circle cx="131" cy="41" r="2.5" fill="#ffffff" opacity="0.29"/><circle cx="471" cy="355" r="1.9" fill="#ffffff" opacity="0.30"/><circle cx="53" cy="112" r="2.1" fill="#ffffff" opacity="0.31"/><circle cx="204" cy="346" r="2.8" fill="#ffffff" opacity="0.22"/><circle cx="244" cy="181" r="1.7" fill="#ffffff" opacity="0.28"/><circle cx="485" cy="253" r="2.8" fill="#ffffff" opacity="0.23"/><circle cx="138" cy="115" r="2.6" fill="#ffffff" opacity="0.18"/><circle cx="401" cy="351" r="3.3" fill="#ffffff" opacity="0.29"/><circle cx="18" cy="314" r="3.4" fill="#ffffff" opacity="0.35"/><circle cx="212" cy="386" r="1.6" fill="#ffffff" opacity="0.24"/>
<circle cx="116" cy="221" r="3.2" fill="#2e2b29" opacity="0.23"/><circle cx="438" cy="194" r="3.6" fill="#2e2b29" opacity="0.45"/><circle cx="215" cy="260" r="2.8" fill="#2e2b29" opacity="0.36"/><circle cx="400" cy="268" r="1.7" fill="#2e2b29" opacity="0.30"/><circle cx="334" cy="152" r="3.1" fill="#2e2b29" opacity="0.27"/><circle cx="144" cy="173" r="1.1" fill="#2e2b29" opacity="0.42"/><circle cx="148" cy="1" r="3.0" fill="#2e2b29" opacity="0.32"/><circle cx="304" cy="74" r="2.8" fill="#2e2b29" opacity="0.35"/><circle cx="39" cy="270" r="1.3" fill="#2e2b29" opacity="0.40"/><circle cx="365" cy="175" r="1.6" fill="#2e2b29" opacity="0.47"/><circle cx="599" cy="254" r="3.4" fill="#2e2b29" opacity="0.30"/><circle cx="562" cy="169" r="2.9" fill="#2e2b29" opacity="0.30"/><circle cx="411" cy="108" r="3.8" fill="#2e2b29" opacity="0.48"/><circle cx="121" cy="115" r="3.3" fill="#2e2b29" opacity="0.37"/><circle cx="493" cy="313" r="2.6" fill="#2e2b29" opacity="0.24"/><circle cx="152" cy="129" r="2.5" fill="#2e2b29" opacity="0.34"/><circle cx="299" cy="2" r="2.7" fill="#2e2b29" opacity="0.27"/><circle cx="126" cy="208" r="2.5" fill="#2e2b29" opacity="0.43"/><circle cx="417" cy="379" r="2.8" fill="#2e2b29" opacity="0.29"/><circle cx="444" cy="75" r="1.6" fill="#2e2b29" opacity="0.31"/><circle cx="315" cy="341" r="3.2" fill="#2e2b29" opacity="0.38"/><circle cx="87" cy="242" r="2.6" fill="#2e2b29" opacity="0.27"/><circle cx="23" cy="264" r="3.7" fill="#2e2b29" opacity="0.43"/><circle cx="221" cy="79" r="1.1" fill="#2e2b29" opacity="0.44"/><circle cx="506" cy="142" r="3.2" fill="#2e2b29" opacity="0.40"/><circle cx="593" cy="202" r="3.2" fill="#2e2b29" opacity="0.46"/><circle cx="538" cy="80" r="3.0" fill="#2e2b29" opacity="0.45"/><circle cx="317" cy="145" r="1.7" fill="#2e2b29" opacity="0.32"/><circle cx="267" cy="85" r="3.6" fill="#2e2b29" opacity="0.21"/><circle cx="352" cy="105" r="2.8" fill="#2e2b29" opacity="0.25"/><circle cx="530" cy="84" r="3.4" fill="#2e2b29" opacity="0.29"/><circle cx="419" cy="163" r="3.3" fill="#2e2b29" opacity="0.48"/><circle cx="155" cy="100" r="3.8" fill="#2e2b29" opacity="0.23"/><circle cx="218" cy="337" r="3.3" fill="#2e2b29" opacity="0.39"/><circle cx="392" cy="92" r="3.7" fill="#2e2b29" opacity="0.24"/><circle cx="178" cy="200" r="1.8" fill="#2e2b29" opacity="0.27"/><circle cx="240" cy="92" r="2.5" fill="#2e2b29" opacity="0.20"/><circle cx="196" cy="351" r="2.2" fill="#2e2b29" opacity="0.43"/><circle cx="403" cy="256" r="2.5" fill="#2e2b29" opacity="0.35"/><circle cx="223" cy="270" r="2.7" fill="#2e2b29" opacity="0.25"/><circle cx="395" cy="170" r="2.3" fill="#2e2b29" opacity="0.39"/><circle cx="403" cy="32" r="3.9" fill="#2e2b29" opacity="0.32"/><circle cx="28" cy="17" r="1.5" fill="#2e2b29" opacity="0.25"/><circle cx="413" cy="235" r="2.9" fill="#2e2b29" opacity="0.28"/><circle cx="240" cy="375" r="1.1" fill="#2e2b29" opacity="0.45"/><circle cx="445" cy="131" r="3.7" fill="#2e2b29" opacity="0.36"/><circle cx="471" cy="230" r="3.2" fill="#2e2b29" opacity="0.46"/><circle cx="261" cy="235" r="2.6" fill="#2e2b29" opacity="0.48"/><circle cx="557" cy="60" r="2.8" fill="#2e2b29" opacity="0.39"/><circle cx="111" cy="133" r="3.3" fill="#2e2b29" opacity="0.34"/><circle cx="186" cy="48" r="3.0" fill="#2e2b29" opacity="0.21"/><circle cx="488" cy="194" r="3.1" fill="#2e2b29" opacity="0.45"/><circle cx="298" cy="147" r="1.8" fill="#2e2b29" opacity="0.24"/><circle cx="578" cy="281" r="1.7" fill="#2e2b29" opacity="0.24"/><circle cx="437" cy="71" r="2.5" fill="#2e2b29" opacity="0.31"/><circle cx="84" cy="341" r="2.3" fill="#2e2b29" opacity="0.33"/><circle cx="475" cy="90" r="2.6" fill="#2e2b29" opacity="0.45"/><circle cx="498" cy="358" r="4.0" fill="#2e2b29" opacity="0.49"/><circle cx="254" cy="324" r="2.8" fill="#2e2b29" opacity="0.30"/><circle cx="539" cy="374" r="2.1" fill="#2e2b29" opacity="0.40"/><circle cx="503" cy="376" r="1.6" fill="#2e2b29" opacity="0.43"/><circle cx="287" cy="202" r="3.3" fill="#2e2b29" opacity="0.23"/><circle cx="8" cy="187" r="2.4" fill="#2e2b29" opacity="0.45"/><circle cx="134" cy="234" r="1.4" fill="#2e2b29" opacity="0.25"/><circle cx="36" cy="41" r="1.0" fill="#2e2b29" opacity="0.22"/><circle cx="347" cy="225" r="3.0" fill="#2e2b29" opacity="0.37"/><circle cx="461" cy="254" r="2.8" fill="#2e2b29" opacity="0.45"/><circle cx="597" cy="250" r="2.4" fill="#2e2b29" opacity="0.26"/><circle cx="374" cy="88" r="2.5" fill="#2e2b29" opacity="0.25"/><circle cx="305" cy="386" r="1.2" fill="#2e2b29" opacity="0.47"/><circle cx="354" cy="73" r="3.9" fill="#2e2b29" opacity="0.31"/><circle cx="228" cy="357" r="1.5" fill="#2e2b29" opacity="0.20"/><circle cx="506" cy="235" r="1.1" fill="#2e2b29" opacity="0.26"/><circle cx="370" cy="315" r="1.9" fill="#2e2b29" opacity="0.47"/><circle cx="156" cy="191" r="3.7" fill="#2e2b29" opacity="0.48"/><circle cx="501" cy="6" r="3.6" fill="#2e2b29" opacity="0.44"/><circle cx="10" cy="117" r="2.3" fill="#2e2b29" opacity="0.33"/><circle cx="419" cy="103" r="3.0" fill="#2e2b29" opacity="0.46"/><circle cx="597" cy="308" r="1.1" fill="#2e2b29" opacity="0.23"/><circle cx="242" cy="383" r="1.6" fill="#2e2b29" opacity="0.47"/><circle cx="454" cy="358" r="3.0" fill="#2e2b29" opacity="0.24"/><circle cx="375" cy="229" r="3.7" fill="#2e2b29" opacity="0.36"/><circle cx="79" cy="159" r="3.5" fill="#2e2b29" opacity="0.42"/><circle cx="45" cy="230" r="3.6" fill="#2e2b29" opacity="0.30"/><circle cx="491" cy="86" r="3.5" fill="#2e2b29" opacity="0.33"/><circle cx="193" cy="348" r="1.9" fill="#2e2b29" opacity="0.21"/><circle cx="450" cy="333" r="3.6" fill="#2e2b29" opacity="0.30"/><circle cx="56" cy="341" r="1.7" fill="#2e2b29" opacity="0.44"/><circle cx="227" cy="268" r="3.1" fill="#2e2b29" opacity="0.39"/><circle cx="457" cy="336" r="2.3" fill="#2e2b29" opacity="0.21"/><circle cx="482" cy="2" r="2.4" fill="#2e2b29" opacity="0.22"/><circle cx="243" cy="62" r="2.4" fill="#2e2b29" opacity="0.41"/><circle cx="186" cy="236" r="3.9" fill="#2e2b29" opacity="0.41"/><circle cx="552" cy="145" r="1.3" fill="#2e2b29" opacity="0.24"/><circle cx="214" cy="30" r="1.6" fill="#2e2b29" opacity="0.34"/><circle cx="518" cy="20" r="2.0" fill="#2e2b29" opacity="0.44"/><circle cx="540" cy="296" r="1.9" fill="#2e2b29" opacity="0.26"/><circle cx="352" cy="333" r="1.2" fill="#2e2b29" opacity="0.44"/><circle cx="84" cy="317" r="2.5" fill="#2e2b29" opacity="0.48"/><circle cx="51" cy="295" r="1.0" fill="#2e2b29" opacity="0.38"/><circle cx="567" cy="129" r="3.4" fill="#2e2b29" opacity="0.25"/><circle cx="253" cy="87" r="2.6" fill="#2e2b29" opacity="0.45"/><circle cx="323" cy="290" r="2.8" fill="#2e2b29" opacity="0.47"/><circle cx="42" cy="348" r="2.1" fill="#2e2b29" opacity="0.46"/><circle cx="38" cy="140" r="3.8" fill="#2e2b29" opacity="0.28"/><circle cx="241" cy="180" r="1.5" fill="#2e2b29" opacity="0.49"/><circle cx="84" cy="380" r="3.9" fill="#2e2b29" opacity="0.49"/><circle cx="457" cy="359" r="3.7" fill="#2e2b29" opacity="0.49"/><circle cx="256" cy="388" r="2.6" fill="#2e2b29" opacity="0.22"/><circle cx="229" cy="64" r="1.5" fill="#2e2b29" opacity="0.47"/><circle cx="140" cy="236" r="1.1" fill="#2e2b29" opacity="0.38"/><circle cx="233" cy="260" r="2.6" fill="#2e2b29" opacity="0.23"/><circle cx="97" cy="136" r="2.8" fill="#2e2b29" opacity="0.50"/><circle cx="473" cy="101" r="3.6" fill="#2e2b29" opacity="0.42"/><circle cx="548" cy="155" r="2.5" fill="#2e2b29" opacity="0.23"/><circle cx="417" cy="118" r="3.2" fill="#2e2b29" opacity="0.23"/><circle cx="513" cy="60" r="1.5" fill="#2e2b29" opacity="0.22"/><circle cx="359" cy="56" r="1.2" fill="#2e2b29" opacity="0.38"/><circle cx="207" cy="130" r="3.6" fill="#2e2b29" opacity="0.39"/><circle cx="387" cy="76" r="2.0" fill="#2e2b29" opacity="0.27"/>
<text x="300" y="440" text-anchor="middle" font-family="Poppins, Arial, sans-serif" font-size="26" font-weight="700" fill="#a04838">60–100 MESH</text>
<text x="300" y="470" text-anchor="middle" font-family="Poppins, Arial, sans-serif" font-size="15" font-weight="500" fill="#777" letter-spacing="2">MEDIUM GRADE</text>
</svg>