<svg xmlns="http://www.w3.org/2000/svg" width="600" height="490" viewBox="0 0 600 490">
<defs>
  <radialGradient id="pile" cx="0.5" cy="0.35" r="0.7"><stop offset="0" stop-color="#8a8380"/><stop offset="1" stop-color="#38312e"/></radialGradient>
</defs>
<rect width="600" height="490" fill="#ffffff"/>
<ellipse cx="300" cy="380" rx="230" ry="44" fill="#000" opacity="0.12"/>
<path d="M90 380 Q300 120 510 380 Z" fill="url(#pile)"/>
<path d="M150 380 Q300 190 450 380 Z" fill="#fff" opacity="0.10"/>
<circle cx="444" cy="192" r="3.2" fill="#ffffff" opacity="0.18"/><circle cx="520" cy="172" r="2.9" fill="#ffffff" opacity="0.34"/><circle cx="228" cy="349" r="2.7" fill="#ffffff" opacity="0.23"/><circle cx="105" cy="195" r="1.3" fill="#ffffff" opacity="0.32"/><circle cx="368" cy="155" r="1.5" fill="#ffffff" opacity="0.25"/><circle cx="521" cy="79" r="2.3" fill="#ffffff" opacity="0.22"/><circle cx="375" cy="251" r="1.8" fill="#ffffff" opacity="0.22"/><circle cx="198" cy="104" r="1.2" fill="#ffffff" opacity="0.30"/><circle cx="442" cy="38" r="2.3" fill="#ffffff" opacity="0.27"/><circle cx="471" cy="92" r="2.4" fill="#ffffff" opacity="0.30"/><circle cx="134" cy="183" r="2.3" fill="#ffffff" opacity="0.31"/><circle cx="218" cy="254" r="1.6" fill="#ffffff" opacity="0.17"/><circle cx="222" cy="117" r="2.6" fill="#ffffff" opacity="0.18"/><circle cx="472" cy="294" r="2.3" fill="#ffffff" opacity="0.17"/><circle cx="116" cy="386" r="1.9" fill="#ffffff" opacity="0.28"/><circle cx="389" cy="189" r="2.7" fill="#ffffff" opacity="0.26"/><circle cx="266" cy="126" r="2.5" fill="#ffffff" opacity="0.24"/><circle cx="391" cy="218" r="1.6" fill="#ffffff" opacity="0.32"/><circle cx="437" cy="341" r="3.4" fill="#ffffff" opacity="0.16"/><circle cx="14" cy="74" r="1.3" fill="#ffffff" opacity="0.21"/><circle cx="492" cy="300" r="2.3" fill="#ffffff" opacity="0.23"/><circle cx="468" cy="296" r="1.3" fill="#ffffff" opacity="0.14"/><circle cx="96" cy="207" r="2.0" fill="#ffffff" opacity="0.16"/><circle cx="383" cy="295" r="2.7" fill="#ffffff" opacity="0.25"/><circle cx="419" cy="84" r="3.3" fill="#ffffff" opacity="0.23"/><circle cx="455" cy="206" r="2.9" fill="#ffffff" opacity="0.19"/><circle cx="199" cy="340" r="3.5" fill="#ffffff" opacity="0.24"/><circle cx="262" cy="288" r="1.2" fill="#ffffff" opacity="0.22"/><circle cx="312" cy="381" r="3.1" fill="#ffffff" opacity="0.29"/><circle cx="572" cy="91" r="3.2" fill="#ffffff" opacity="0.27"/><circle cx="204" cy="266" r="3.1" fill="#ffffff" opacity="0.29"/><circle cx="507" cy="385" r="2.0" fill="#ffffff" opacity="0.19"/><circle cx="199" cy="121" r="1.5" fill="#ffffff" opacity="0.21"/><circle cx="448" cy="202" r="2.6" fill="#ffffff" opacity="0.15"/><circle cx="235" cy="159" r="1.8" fill="#ffffff" opacity="0.35"/><circle cx="279" cy="92" r="3.4" fill="#ffffff" opacity="0.14"/><circle cx="474" cy="39" r="2.3" fill="#ffffff" opacity="0.34"/><circle cx="40" cy="173" r="1.2" fill="#ffffff" opacity="0.34"/><circle cx="122" cy="140" r="3.2" fill="#ffffff" opacity="0.30"/><circle cx="530" cy="41" r="1.9" fill="#ffffff" opacity="0.31"/><circle cx="46" cy="47" r="1.0" fill="#ffffff" opacity="0.25"/><circle cx="214" cy="67" r="2.9" fill="#ffffff" opacity="0.17"/><circle cx="291" cy="162" r="1.8" fill="#ffffff" opacity="0.19"/><circle cx="569" cy="5" r="2.1" fill="#ffffff" opacity="0.35"/><circle cx="306" cy="110" r="2.2" fill="#ffffff" opacity="0.15"/><circle cx="40" cy="70" r="1.5" fill="#ffffff" opacity="0.26"/><circle cx="325" cy="390" r="1.0" fill="#ffffff" opacity="0.17"/><circle cx="118" cy="38" r="2.4" fill="#ffffff" opacity="0.27"/><circle cx="572" cy="32" r="1.6" fill="#ffffff" opacity="0.26"/><circle cx="434" cy="352" r="3.4" fill="#ffffff" opacity="0.17"/><circle cx="1" cy="29" r="3.3" fill="#ffffff" opacity="0.19"/><circle cx="48" cy="57" r="1.4" fill="#ffffff" opacity="0.19"/><circle cx="283" cy="388" r="3.0" fill="#ffffff" opacity="0.31"/><circle cx="318" cy="132" r="3.4" fill="#ffffff" opacity="0.15"/><circle cx="412" cy="378" r="2.8" fill="#ffffff" opacity="0.32"/><circle cx="9" cy="230" r="2.4" fill="#ffffff" opacity="0.22"/><circle cx="268" cy="304" r="3.0" fill="#ffffff" opacity="0.23"/><circle cx="195" cy="187" r="1.1" fill="#ffffff" opacity="0.26"/><circle cx="290" cy="186" r="1.3" fill="#ffffff" opacity="0.28"/><circle cx="187" cy="188" r="2.1" fill="#ffffff" opacity="0.17"/><circle cx="184" cy="367" r="2.2" fill="#ffffff" opacity="0.32"/><circle cx="564" cy="240" r="1.6" fill="#ffffff" opacity="0.17"/><circle cx="439" cy="255" r="2.9" fill="#ffffff" opacity="0.34"/><circle cx="513" cy="105" r="2.1" fill="#ffffff" opacity="0.19"/><circle cx="108" cy="288" r="2.2" fill="#ffffff" opacity="0.24"/><circle cx="237" cy="182" r="3.0" fill="#ffffff" opacity="0.25"/><circle cx="353" cy="174" r="1.9" fill="#ffffff" opacity="0.15"/><circle cx="439" cy="257" r="2.3" fill="#ffffff" opacity="0.20"/><circle cx="304" cy="33" r="2.6" fill="#ffffff" opacity="0.33"/><circle cx="256" cy="310" r="2.8" fill="#ffffff" opacity="0.32"/><circle cx="33" cy="44" r="3.2" fill="#ffffff" opacity="0.21"/><circle cx="266" cy="161" r="1.2" fill="#ffffff" opacity="0.29"/><circle cx="507" cy="320" r="2.0" fill="#ffffff" opacity="0.23"/><circle cx="314" cy="186" r="1.6" fill="#ffffff" opacity="0.16"/><circle cx="349" cy="198" r="2.8" fill="#ffffff" opacity="0.20"/><circle cx="41" cy="363" r="1.8" fill="#ffffff" opacity="0.19"/><circle cx="88" cy="95" r="2.3" fill="#ffffff" opacity="0.19"/><circle cx="32" cy="93" r="1.5" fill="#ffffff" opacity="0.28"/><circle cx="2" cy="38" r="1.3" fill="#ffffff" opacity="0.14"/><circle cx="270" cy="50" r="2.1" fill="#ffffff" opacity="0.15"/><circle cx="230" cy="40" r="3.3" fill="#ffffff" opacity="0.33"/><circle cx="323" cy="92" r="1.2" fill="#ffffff" opacity="0.26"/><circle cx="98" cy="11" r="1.3" fill="#ffffff" opacity="0.21"/><circle cx="366" cy="4" r="2.9" fill="#ffffff" opacity="0.23"/><circle cx="210" cy="47" r="2.1" fill="#ffffff" opacity="0.31"/><circle cx="303" cy="245" r="2.3" fill="#ffffff" opacity="0.27"/><circle cx="379" cy="61" r="1.6" fill="#ffffff" opacity="0.24"/><circle cx="549" cy="352" r="3.5" fill="#ffffff" opacity="0.32"/><circle cx="547" cy="345" r="2.7" fill="#ffffff" opacity="0.32"/><circle cx="525" cy="205" r="3.4" fill="#ffffff" opacity="0.15"/><circle cx="26" cy="387" r="1.5" fill="#ffffff" opacity="0.27"/><circle cx="401" cy="288" r="2.9" fill="#ffffff" opacity="0.32"/><circle cx="358" cy="322" r="1.3" fill="#ffffff" opacity="0.22"/><circle cx="552" cy="173" r="1.2" fill="#ffffff" opacity="0.20"/><circle cx="210" cy="300" r="1.3" fill="#ffffff" opacity="0.23"/><circle cx="3" cy="15" r="1.2" fill="#ffffff" opacity="0.31"/><circle cx="573" cy="297" r="1.1" fill="#ffffff" opacity="0.32"/><circle cx="149" cy="186" r="1.7" fill="#ffffff" opacity="0.34"/><circle cx="268" cy="102" r="1.2" fill="#ffffff" opacity="0.25"/><circle cx="453" cy="87" r="1.9" fill="#ffffff" opacity="0.23"/><circle cx="204" cy="224" r="1.3" fill="#ffffff" opacity="0.19"/><circle cx="426" cy="192" r="3.2" fill="#ffffff" opacity="0.27"/><circle cx="187" cy="280" r="1.8" fill="#ffffff" opacity="0.26"/><circle cx="122" cy="152" r="1.6" fill="#ffffff" opacity="0.24"/><circle cx="29" cy="220" r="2.5" fill="#ffffff" opacity="0.25"/><circle cx="138" cy="273" r="1.8" fill="#ffffff" opacity="0.26"/><circle cx="515" cy="112" r="2.9" fill="#ffffff" opacity="0.32"/><circle cx="348" cy="76" r="3.5" fill="#ffffff" opacity="0.30"/><circle cx="341" cy="345" r="1.1" fill="#ffffff" opacity="0.34"/><circle cx="501" cy="249" r="1.9" fill="#ffffff" opacity="0.17"/><circle cx="385" cy="304" r="1.4" fill="#ffffff" opacity="0.27"/><circle cx="394" cy="312" r="3.3" fill="#ffffff" opacity="0.26"/><circle cx="174" cy="87" r="2.1" fill="#ffffff" opacity="0.27"/><circle cx="44" cy="263" r="1.4" fill="#ffffff" opacity="0.26"/><circle cx="431" cy="362" r="2.4" fill="#ffffff" opacity="0.21"/><circle cx="219" cy="138" r="1.2" fill="#ffffff" opacity="0.29"/><circle cx="338" cy="140" r="2.6" fill="#ffffff" opacity="0.23"/><circle cx="37" cy="72" r="1.3" fill="#ffffff" opacity="0.27"/><circle cx="168" cy="96" r="1.7" fill="#ffffff" opacity="0.29"/><circle cx="529" cy="98" r="2.8" fill="#ffffff" opacity="0.35"/><circle cx="11" cy="68" r="3.1" fill="#ffffff" opacity="0.22"/><circle cx="308" cy="121" r="1.8" fill="#ffffff" opacity="0.27"/><circle cx="328" cy="371" r="3.3" fill="#ffffff" opacity="0.30"/><circle cx="11" cy="300" r="3.1" fill="#ffffff" opacity="0.25"/><circle cx="404" cy="139" r="3.3" fill="#ffffff" opacity="0.16"/><circle cx="506" cy="7" r="1.6" fill="#ffffff" opacity="0.21"/><circle cx="599" cy="254" r="2.3" fill="#ffffff" opacity="0.21"/><circle cx="128" cy="257" r="2.5" fill="#ffffff" opacity="0.15"/><circle cx="199" cy="38" r="3.0" fill="#ffffff" opacity="0.26"/><circle cx="300" cy="241" r="1.3" fill="#ffffff" opacity="0.24"/><circle cx="411" cy="155" r="1.2" fill="#ffffff" opacity="0.25"/><circle cx="553" cy="344" r="2.6" fill="#ffffff" opacity="0.22"/><circle cx="521" cy="124" r="2.3" fill="#ffffff" opacity="0.21"/><circle cx="383" cy="230" r="1.8" fill="#ffffff" opacity="0.31"/><circle cx="73" cy="67" r="2.6" fill="#ffffff" opacity="0.23"/><circle cx="89" cy="16" r="1.8" fill="#ffffff" opacity="0.34"/><circle cx="581" cy="207" r="3.4" fill="#ffffff" opacity="0.33"/><circle cx="112" cy="15" r="1.1" fill="#ffffff" opacity="0.15"/><circle cx="281" cy="355" r="2.9" fill="#ffffff" opacity="0.16"/><circle cx="519" cy="65" r="2.0" fill="#ffffff" opacity="0.19"/><circle cx="193" cy="89" r="3.2" fill="#ffffff" opacity="0.17"/><circle cx="344" cy="158" r="2.9" fill="#ffffff" opacity="0.20"/><circle cx="275" cy="366" r="3.0" fill="#ffffff" opacity="0.23"/><circle cx="191" cy="112" r="2.4" fill="#ffffff" opacity="0.17"/><circle cx="459" cy="342" r="1.4" fill="#ffffff" opacity="0.28"/><circle cx="566" cy="249" r="2.0" fill="#ffffff" opacity="0.21"/><circle cx="210" cy="30" r="3.2" fill="#ffffff" opacity="0.28"/><circle cx="42" cy="308" r="1.8" fill="#ffffff" opacity="0.27"/><circle cx="331" cy="29" r="3.2" fill="#ffffff" opacity="0.32"/><circle cx="66" cy="194" r="2.4" fill="#ffffff" opacity="0.34"/><circle cx="572" cy="354" r="1.9" fill="#ffffff" opacity="0.21"/><circle cx="337" cy="241" r="2.7" fill="#ffffff" opacity="0.22"/><circle cx="264" cy="157" r="2.1" fill="#ffffff" opacity="0.25"/><circle cx="10" cy="58" r="2.8" fill="#ffffff" opacity="0.31"/><circle cx="572" cy="69" r="2.0" fill="#ffffff" opacity="0.34"/><circle cx="20" cy="87" r="2.5" fill="#ffffff" opacity="0.27"/><circle cx="50" cy="160" r="2.6" fill="#ffffff" opacity="0.15"/><circle cx="57" cy="40" r="1.5" fill="#ffffff" opacity="0.15"/><circle cx="546" cy="145" r="3.2" fill="#ffffff" opacity="0.28"/><circle cx="143" cy="117" r="3.0" fill="#ffffff" opacity="0.20"/><circle cx="77" cy="115" r="1.4" fill="#ffffff" opacity="0.15"/><circle cx="585" cy="157" r="2.4" fill="#ffffff" opacity="0.31"/><circle cx="585" cy="69" r="2.2" fill="#ffffff" opacity="0.14"/><circle cx="476" cy="358" r="2.1" fill="#ffffff" opacity="0.30"/><circle cx="404" cy="78" r="1.1" fill="#ffffff" opacity="0.23"/><circle cx="360" cy="62" r="3.0" fill="#ffffff" opacity="0.34"/><circle cx="155" cy="4" r="1.6" fill="#ffffff" opacity="0.32"/><circle cx="545" cy="281" r="1.3" fill="#ffffff" opacity="0.29"/><circle cx="321" cy="250" r="2.9" fill="#ffffff" opacity="0.25"/><circle cx="454" cy="179" r="1.6" fill="#ffffff" opacity="0.34"/><circle cx="591" cy="257" r="2.0" fill="#ffffff" opacity="0.21"/><circle cx="532" cy="126" r="2.1" fill="#ffffff" opacity="0.19"/><circle cx="122" cy="59" r="2.4" fill="#ffffff" opacity="0.15"/><circle cx="487" cy="90" r="2.3" fill="#ffffff" opacity="0.19"/><circle cx="534" cy="185" r="3.2" fill="#ffffff" opacity="0.23"/><circle cx="89" cy="129" r="1.3" fill="#ffffff" opacity="0.27"/><circle cx="55" cy="30" r="2.0" fill="#ffffff" opacity="0.29"/><circle cx="483" cy="64" r="1.8" fill="#ffffff" opacity="0.28"/><circle cx="446" cy="122" r="2.6" fill="#ffffff" opacity="0.24"/><circle cx="399" cy="40" r="1.5" fill="#ffffff" opacity="0.27"/><circle cx="18" cy="86" r="3.3" fill="#ffffff" opacity="0.16"/><circle cx="87" cy="63" r="2.2" fill="#ffffff" opacity="0.20"/><circle cx="288" cy="128" r="1.7" fill="#ffffff" opacity="0.30"/><circle cx="402" cy="374" r="3.4" fill="#ffffff" opacity="0.15"/><circle cx="59" cy="374" r="1.6" fill="#ffffff" opacity="0.31"/><circle cx="413" cy="360" r="3.1" fill="#ffffff" opacity="0.33"/><circle cx="166" cy="383" r="1.4" fill="#ffffff" opacity="0.32"/><circle cx="184" cy="255" r="1.0" fill="#ffffff" opacity="0.33"/><circle cx="201" cy="109" r="2.6" fill="#ffffff" opacity="0.31"/><circle cx="120" cy="139" r="2.4" fill="#ffffff" opacity="0.34"/><circle cx="586" cy="361" r="3.3" fill="#ffffff" opacity="0.34"/><circle cx="223" cy="353" r="1.6" fill="#ffffff" opacity="0.31"/><circle cx="237" cy="199" r="1.5" fill="#ffffff" opacity="0.14"/><circle cx="270" cy="389" r="1.5" fill="#ffffff" opacity="0.26"/><circle cx="424" cy="356" r="1.4" fill="#ffffff" opacity="0.20"/><circle cx="182" cy="237" r="2.9" fill="#ffffff" opacity="0.30"/><circle cx="218" cy="382" r="3.4" fill="#ffffff" opacity="0.19"/><circle cx="409" cy="243" r="2.7" fill="#ffffff" opacity="0.33"/><circle cx="370" cy="338" r="2.8" fill="#ffffff" opacity="0.26"/><circle cx="259" cy="282" r="2.2" fill="#ffffff" opacity="0.16"/><circle cx="510" cy="336" r="2.5" fill="#ffffff" opacity="0.21"/><circle cx="104" cy="56" r="2.1" fill="#ffffff" opacity="0.20"/><circle cx="572" cy="253" r="3.0" fill="#ffffff" opacity="0.20"/><circle cx="118" cy="297" r="3.2" fill="#ffffff" opacity="0.18"/><circle cx="266" cy="321" r="1.7" fill="#ffffff" opacity="0.25"/><circle cx="203" cy="332" r="3.2" fill="#ffffff" opacity="0.21"/><circle cx="1" cy="367" r="1.9" fill="#ffffff" opacity="0.21"/><circle cx="40" cy="22" r="2.8" fill="#ffffff" opacity="0.15"/><circle cx="13" cy="61" r="2.2" fill="#ffffff" opacity="0.33"/><circle cx="485" cy="27" r="1.0" fill="#ffffff" opacity="0.15"/><circle cx="210" cy="304" r="2.3" fill="#ffffff" opacity="0.21"/><circle cx="374" cy="211" r="2.9" fill="#ffffff" opacity="0.29"/><circle cx="121" cy="93" r="2.9" fill="#ffffff" opacity="0.20"/><circle cx="109" cy="16" r="2.2" fill="#ffffff" opacity="0.15"/><circle cx="30" cy="379" r="1.3" fill="#ffffff" opacity="0.17"/><circle cx="199" cy="90" r="1.4" fill="#ffffff" opacity="0.18"/><circle cx="551" cy="107" r="1.8" fill="#ffffff" opacity="0.27"/><circle cx="218" cy="28" r="2.6" fill="#ffffff" opacity="0.16"/><circle cx="434" cy="161" r="3.1" fill="#ffffff" opacity="0.20"/><circle cx="484" cy="224" r="1.6" fill="#ffffff" opacity="0.29"/><circle cx="564" cy="284" r="1.6" fill="#ffffff" opacity="0.29"/><circle cx="523" cy="167" r="1.0" fill="#ffffff" opacity="0.20"/><circle cx="459" cy="242" r="2.9" fill="#ffffff" opacity="0.20"/><circle cx="173" cy="10" r="2.6" fill="#ffffff" opacity="0.25"/><circle cx="71" cy="120" r="1.6" fill="#ffffff" opacity="0.35"/><circle cx="102" cy="11" r="1.3" fill="#ffffff" opacity="0.18"/><circle cx="40" cy="68" r="3.2" fill="#ffffff" opacity="0.23"/><circle cx="156" cy="365" r="3.0" fill="#ffffff" opacity="0.17"/><circle cx="509" cy="308" r="3.2" fill="#ffffff" opacity="0.30"/><circle cx="381" cy="137" r="2.2" fill="#ffffff" opacity="0.23"/><circle cx="251" cy="247" r="1.7" fill="#ffffff" opacity="0.17"/><circle cx="256" cy="150" r="3.2" fill="#ffffff" opacity="0.26"/><circle cx="221" cy="365" r="1.3" fill="#ffffff" opacity="0.35"/><circle cx="211" cy="91" r="3.4" fill="#ffffff" opacity="0.27"/><circle cx="185" cy="319" r="3.4" fill="#ffffff" opacity="0.30"/><circle cx="314" cy="198" r="2.7" fill="#ffffff" opacity="0.15"/><circle cx="546" cy="253" r="3.5" fill="#ffffff" opacity="0.34"/><circle cx="263" cy="123" r="3.1" fill="#ffffff" opacity="0.21"/><circle cx="233" cy="17" r="1.2" fill="#ffffff" opacity="0.25"/><circle cx="361" cy="149" r="3.2" fill="#ffffff" opacity="0.17"/><circle cx="402" cy="274" r="2.7" fill="#ffffff" opacity="0.19"/><circle cx="271" cy="320" r="2.7" fill="#ffffff" opacity="0.18"/><circle cx="317" cy="341" r="1.3" fill="#ffffff" opacity="0.24"/><circle cx="389" cy="343" r="1.1" fill="#ffffff" opacity="0.14"/><circle cx="83" cy="340" r="1.9" fill="#ffffff" opacity="0.22"/><circle cx="43" cy="90" r="1.2" fill="#ffffff" opacity="0.28"/><circle cx="569" cy="388" r="2.8" fill="#ffffff" opacity="0.19"/><circle cx="170" cy="217" r="1.7" fill="#ffffff" opacity="0.29"/><circle cx="212" cy="350" r="3.4" fill="#ffffff" opacity="0.14"/><circle cx="68" cy="380" r="1.9" fill="#ffffff" opacity="0.21"/><circle cx="499" cy="8" r="3.2" fill="#ffffff" opacity="0.19"/><circle cx="131" cy="385" r="3.1" fill="#ffffff" opacity="0.25"/><circle cx="566" cy="385" r="2.5" fill="#ffffff" opacity="0.26"/><circle cx="548" cy="350" r="1.3" fill="#ffffff" opacity="0.31"/><circle cx="10" cy="344" r="2.7" fill="#ffffff" opacity="0.28"/><circle cx="533" cy="100" r="1.5" fill="#ffffff" opacity="0.30"/><circle cx="471" cy="256" r="3.2" fill="#ffffff" opacity="0.31"/><circle cx="477" cy="224" r="2.8" fill="#ffffff" opacity="0.14"/><circle cx="450" cy="301" r="3.2" fill="#ffffff" opacity="0.32"/><circle cx="92" cy="1" r="1.3" fill="#ffffff" opacity="0.20"/><circle cx="513" cy="26" r="1.7" fill="#ffffff" opacity="0.22"/><circle cx="459" cy="281" r="1.9" fill="#ffffff" opacity="0.32"/><circle cx="392" cy="52" r="1.7" fill="#ffffff" opacity="0.25"/><circle cx="546" cy="364" r="2.5" fill="#ffffff" opacity="0.27"/><circle cx="589" cy="241" r="2.1" fill="#ffffff" opacity="0.24"/><circle cx="90" cy="251" r="3.1" fill="#ffffff" opacity="0.30"/><circle cx="76" cy="232" r="3.0" fill="#ffffff" opacity="0.26"/><circle cx="225" cy="17" r="1.7" fill="#ffffff" opacity="0.16"/><circle cx="170" cy="118" r="2.3" fill="#ffffff" opacity="0.17"/><circle cx="96" cy="224" r="2.7" fill="#ffffff" opacity="0.34"/><circle cx="504" cy="315" r="3.5" fill="#ffffff" opacity="0.18"/><circle cx="275" cy="254" r="3.2" fill="#ffffff" opacity="0.14"/><circle cx="41" cy="282" r="1.9" fill="#ffffff" opacity="0.24"/><circle cx="519" cy="310" r="1.8" fill="#ffffff" opacity="0.24"/><circle cx="28" cy="296" r="3.3" fill="#ffffff" opacity="0.31"/><circle cx="592" cy="346" r="1.1" fill="#ffffff" opacity="0.25"/><circle cx="506" cy="356" r="3.4" fill="#ffffff" opacity="0.26"/><circle cx="311" cy="235" r="1.9" fill="#ffffff" opacity="0.15"/><circle cx="227" cy="183" r="2.9" fill="#ffffff" opacity="0.20"/><circle cx="79" cy="254" r="2.9" fill="#ffffff" opacity="0.32"/><circle cx="26" cy="36" r="1.5" fill="#ffffff" opacity="0.20"/><circle cx="440" cy="376" r="1.3" fill="#ffffff" opacity="0.33"/><circle cx="121" cy="263" r="3.1" fill="#ffffff" opacity="0.22"/><circle cx="490" cy="262" r="1.2" fill="#ffffff" opacity="0.18"/><circle cx="550" cy="236" r="1.8" fill="#ffffff" opacity="0.14"/><circle cx="19" cy="255" r="3.3" fill="#ffffff" opacity="0.25"/><circle cx="253" cy="103" r="1.5" fill="#ffffff" opacity="0.20"/><circle cx="509" cy="71" r="2.2" fill="#ffffff" opacity="0.15"/><circle cx="104" cy="3" r="2.6" fill="#ffffff" opacity="0.18"/><circle cx="500" cy="385" r="2.9" fill="#ffffff" opacity="0.23"/><circle cx="521" cy="322" r="1.6" fill="#ffffff" opacity="0.35"/><circle cx="399" cy="211" r="2.7" fill="#ffffff" opacity="0.33"/><circle cx="213" cy="264" r="2.5" fill="#ffffff" opacity="0.32"/><circle cx="369" cy="212" r="2.9" fill="#ffffff" opacity="0.18"/><circle cx="584" cy="49" r="2.0" fill="#ffffff" opacity="0.32"/><circle cx="384" cy="340" r="1.4" fill="#ffffff" opacity="0.24"/><circle cx="143" cy="188" r="2.8" fill="#ffffff" opacity="0.34"/><circle cx="485" cy="353" r="2.1" fill="#ffffff" opacity="0.30"/><circle cx="215" cy="282" r="1.8" fill="#ffffff" opacity="0.21"/><circle cx="217" cy="89" r="2.3" fill="#ffffff" opacity="0.22"/><circle cx="81" cy="74" r="2.2" fill="#ffffff" opacity="0.20"/><circle cx="270" cy="325" r="1.8" fill="#ffffff" opacity="0.24"/><circle cx="227" cy="313" r="3.0" fill="#ffffff" opacity="0.29"/><circle cx="593" cy="253" r="1.4" fill="#ffffff" opacity="0.19"/><circle cx="435" cy="202" r="2.6" fill="#ffffff" opacity="0.25"/><circle cx="35" cy="236" r="1.6" fill="#ffffff" opacity="0.16"/><circle cx="92" cy="246" r="3.1" fill="#ffffff" opacity="0.32"/><circle cx="199" cy="216" r="2.1" fill="#ffffff" opacity="0.26"/><circle cx="304" cy="142" r="2.3" fill="#ffffff" opacity="0.31"/><circle cx="96" cy="308" r="2.4" fill="#ffffff" opacity="0.34"/><circle cx="322" cy="35" r="2.8" fill="#ffffff" opacity="0.33"/><circle cx="144" cy="219" r="3.0" fill="#ffffff" opacity="0.27"/><circle cx="415" cy="375" r="2.7" fill="#ffffff" opacity="0.19"/><circle cx="208" cy="265" r="2.6" fill="#ffffff" opacity="0.20"/><circle cx="293" cy="62" r="1.3" fill="#ffffff" opacity="0.15"/><circle cx="253" cy="158" r="1.5" fill="#ffffff" opacity="0.29"/><circle cx="597" cy="82" r="2.6" fill="#ffffff" opacity="0.24"/><circle cx="253" cy="355" r="3.4" fill="#ffffff" opacity="0.17"/><circle cx="210" cy="215" r="3.0" fill="#ffffff" opacity="0.30"/><circle cx="475" cy="207" r="2.4" fill="#ffffff" opacity="0.22"/><circle cx="163" cy="364" r="1.8" fill="#ffffff" opacity="0.33"/><circle cx="485" cy="296" r="2.6" fill="#ffffff" opacity="0.25"/><circle cx="38" cy="64" r="1.1" fill="#ffffff" opacity="0.20"/><circle cx="59" cy="52" r="1.2" fill="#ffffff" opacity="0.22"/><circle cx="553" cy="208" r="2.3" fill="#ffffff" opacity="0.33"/><circle cx="279" cy="312" r="2.3" fill="#ffffff" opacity="0.31"/><circle cx="590" cy="191" r="2.8" fill="#ffffff" opacity="0.31"/><circle cx="180" cy="283" r="2.0" fill="#ffffff" opacity="0.20"/><circle cx="402" cy="240" r="3.0" fill="#ffffff" opacity="0.33"/><circle cx="319" cy="16" r="2.3" fill="#ffffff" opacity="0.22"/><circle cx="212" cy="140" r="2.7" fill="#ffffff" opacity="0.20"/><circle cx="280" cy="234" r="3.2" fill="#ffffff" opacity="0.25"/><circle cx="144" cy="82" r="1.1" fill="#ffffff" opacity="0.28"/><circle cx="40" cy="169" r="2.0" fill="#ffffff" opacity="0.22"/><circle cx="322" cy="101" r="1.2" fill="#ffffff" opacity="0.26"/><circle cx="74" cy="9" r="3.3" fill="#ffffff" opacity="0.32"/><circle cx="498" cy="123" r="2.1" fill="#ffffff" opacity="0.28"/><circle cx="410" cy="176" r="3.1" fill="#ffffff" opacity="0.21"/><circle cx="477" cy="187" r="1.2" fill="#ffffff" opacity="0.24"/><circle cx="97" cy="239" r="2.8" fill="#ffffff" opacity="0.20"/>
<circle cx="328" cy="48" r="1.8" fill="#38312e" opacity="0.33"/><circle cx="10" cy="194" r="3.9" fill="#38312e" opacity="0.33"/><circle cx="500" cy="374" r="1.1" fill="#38312e" opacity="0.20"/><circle cx="262" cy="374" r="2.4" fill="#38312e" opacity="0.44"/><circle cx="403" cy="18" r="2.4" fill="#38312e" opacity="0.39"/><circle cx="96" cy="52" r="3.0" fill="#38312e" opacity="0.29"/><circle cx="414" cy="108" r="1.2" fill="#38312e" opacity="0.31"/><circle cx="472" cy="136" r="2.6" fill="#38312e" opacity="0.43"/><circle cx="166" cy="338" r="1.1" fill="#38312e" opacity="0.34"/><circle cx="145" cy="67" r="3.7" fill="#38312e" opacity="0.25"/><circle cx="468" cy="184" r="3.8" fill="#38312e" opacity="0.47"/><circle cx="10" cy="371" r="2.7" fill="#38312e" opacity="0.42"/><circle cx="63" cy="280" r="3.2" fill="#38312e" opacity="0.49"/><circle cx="357" cy="16" r="3.0" fill="#38312e" opacity="0.40"/><circle cx="78" cy="315" r="1.1" fill="#38312e" opacity="0.38"/><circle cx="373" cy="369" r="1.5" fill="#38312e" opacity="0.27"/><circle cx="406" cy="188" r="3.8" fill="#38312e" opacity="0.25"/><circle cx="396" cy="83" r="3.8" fill="#38312e" opacity="0.31"/><circle cx="249" cy="199" r="3.8" fill="#38312e" opacity="0.45"/><circle cx="375" cy="124" r="2.9" fill="#38312e" opacity="0.46"/><circle cx="280" cy="58" r="3.4" fill="#38312e" opacity="0.50"/><circle cx="178" cy="21" r="2.0" fill="#38312e" opacity="0.26"/><circle cx="388" cy="196" r="3.5" fill="#38312e" opacity="0.26"/><circle cx="384" cy="228" r="1.4" fill="#38312e" opacity="0.35"/><circle cx="127" cy="9" r="2.2" fill="#38312e" opacity="0.31"/><circle cx="1" cy="318" r="3.5" fill="#38312e" opacity="0.24"/><circle cx="147" cy="32" r="3.6" fill="#38312e" opacity="0.42"/><circle cx="472" cy="174" r="3.4" fill="#38312e" opacity="0.38"/><circle cx="161" cy="117" r="2.6" fill="#38312e" opacity="0.33"/><circle cx="385" cy="173" r="1.1" fill="#38312e" opacity="0.40"/><circle cx="368" cy="308" r="3.3" fill="#38312e" opacity="0.43"/><circle cx="251" cy="11" r="2.7" fill="#38312e" opacity="0.48"/><circle cx="472" cy="365" r="2.6" fill="#38312e" opacity="0.36"/><circle cx="177" cy="329" r="2.5" fill="#38312e" opacity="0.49"/><circle cx="469" cy="293" r="2.4" fill="#38312e" opacity="0.29"/><circle cx="10" cy="290" r="3.2" fill="#38312e" opacity="0.28"/><circle cx="533" cy="85" r="3.9" fill="#38312e" opacity="0.37"/><circle cx="230" cy="79" r="3.8" fill="#38312e" opacity="0.37"/><circle cx="545" cy="52" r="3.7" fill="#38312e" opacity="0.31"/><circle cx="139" cy="380" r="1.9" fill="#38312e" opacity="0.40"/><circle cx="349" cy="152" r="2.7" fill="#38312e" opacity="0.31"/><circle cx="306" cy="364" r="3.0" fill="#38312e" opacity="0.38"/><circle cx="85" cy="326" r="1.9" fill="#38312e" opacity="0.48"/><circle cx="91" cy="348" r="3.8" fill="#38312e" opacity="0.43"/><circle cx="64" cy="171" r="2.6" fill="#38312e" opacity="0.43"/><circle cx="435" cy="6" r="3.6" fill="#38312e" opacity="0.47"/><circle cx="384" cy="195" r="2.2" fill="#38312e" opacity="0.44"/><circle cx="294" cy="41" r="3.7" fill="#38312e" opacity="0.34"/><circle cx="518" cy="268" r="3.9" fill="#38312e" opacity="0.43"/><circle cx="480" cy="73" r="3.2" fill="#38312e" opacity="0.24"/><circle cx="508" cy="142" r="1.2" fill="#38312e" opacity="0.44"/><circle cx="588" cy="158" r="1.4" fill="#38312e" opacity="0.34"/><circle cx="294" cy="26" r="2.0" fill="#38312e" opacity="0.28"/><circle cx="580" cy="320" r="1.5" fill="#38312e" opacity="0.48"/><circle cx="429" cy="90" r="1.7" fill="#38312e" opacity="0.21"/><circle cx="269" cy="305" r="2.1" fill="#38312e" opacity="0.39"/><circle cx="487" cy="150" r="3.0" fill="#38312e" opacity="0.38"/><circle cx="346" cy="332" r="2.0" fill="#38312e" opacity="0.36"/><circle cx="409" cy="100" r="4.0" fill="#38312e" opacity="0.28"/><circle cx="21" cy="219" r="2.6" fill="#38312e" opacity="0.21"/><circle cx="192" cy="213" r="1.3" fill="#38312e" opacity="0.44"/><circle cx="237" cy="231" r="2.1" fill="#38312e" opacity="0.45"/><circle cx="574" cy="166" r="3.9" fill="#38312e" opacity="0.50"/><circle cx="300" cy="229" r="3.7" fill="#38312e" opacity="0.47"/><circle cx="51" cy="136" r="2.7" fill="#38312e" opacity="0.38"/><circle cx="595" cy="94" r="3.6" fill="#38312e" opacity="0.24"/><circle cx="367" cy="7" r="1.4" fill="#38312e" opacity="0.45"/><circle cx="107" cy="313" r="2.7" fill="#38312e" opacity="0.43"/><circle cx="583" cy="303" r="3.6" fill="#38312e" opacity="0.29"/><circle cx="591" cy="170" r="2.7" fill="#38312e" opacity="0.48"/><circle cx="238" cy="329" r="3.3" fill="#38312e" opacity="0.36"/><circle cx="140" cy="129" r="2.8" fill="#38312e" opacity="0.48"/><circle cx="438" cy="318" r="3.8" fill="#38312e" opacity="0.20"/><circle cx="245" cy="98" r="3.5" fill="#38312e" opacity="0.39"/><circle cx="537" cy="143" r="2.1" fill="#38312e" opacity="0.40"/><circle cx="598" cy="16" r="3.2" fill="#38312e" opacity="0.21"/><circle cx="85" cy="218" r="2.8" fill="#38312e" opacity="0.31"/><circle cx="553" cy="241" r="1.9" fill="#38312e" opacity="0.36"/><circle cx="418" cy="333" r="2.4" fill="#38312e" opacity="0.42"/><circle cx="470" cy="43" r="2.4" fill="#38312e" opacity="0.28"/><circle cx="280" cy="378" r="3.1" fill="#38312e" opacity="0.41"/><circle cx="110" cy="210" r="3.4" fill="#38312e" opacity="0.22"/><circle cx="191" cy="371" r="3.8" fill="#38312e" opacity="0.45"/><circle cx="288" cy="36" r="2.3" fill="#38312e" opacity="0.25"/><circle cx="112" cy="39" r="1.3" fill="#38312e" opacity="0.34"/><circle cx="307" cy="117" r="1.8" fill="#38312e" opacity="0.49"/><circle cx="56" cy="135" r="3.3" fill="#38312e" opacity="0.42"/><circle cx="532" cy="248" r="2.1" fill="#38312e" opacity="0.30"/><circle cx="303" cy="366" r="3.5" fill="#38312e" opacity="0.28"/><circle cx="328" cy="309" r="3.4" fill="#38312e" opacity="0.48"/><circle cx="176" cy="285" r="1.5" fill="#38312e" opacity="0.42"/><circle cx="202" cy="258" r="2.1" fill="#38312e" opacity="0.33"/><circle cx="2" cy="319" r="2.6" fill="#38312e" opacity="0.38"/><circle cx="486" cy="110" r="2.0" fill="#38312e" opacity="0.46"/><circle cx="572" cy="335" r="1.0" fill="#38312e" opacity="0.45"/><circle cx="176" cy="106" r="2.3" fill="#38312e" opacity="0.40"/><circle cx="75" cy="90" r="2.9" fill="#38312e" opacity="0.49"/><circle cx="118" cy="99" r="3.7" fill="#38312e" opacity="0.26"/><circle cx="315" cy="85" r="1.9" fill="#38312e" opacity="0.40"/><circle cx="569" cy="94" r="1.5" fill="#38312e" opacity="0.38"/><circle cx="376" cy="276" r="3.1" fill="#38312e" opacity="0.27"/><circle cx="29" cy="148" r="3.2" fill="#38312e" opacity="0.21"/><circle cx="391" cy="314" r="3.0" fill="#38312e" opacity="0.28"/><circle cx="201" cy="385" r="2.0" fill="#38312e" opacity="0.49"/><circle cx="333" cy="176" r="1.9" fill="#38312e" opacity="0.36"/><circle cx="85" cy="69" r="2.0" fill="#38312e" opacity="0.47"/><circle cx="477" cy="372" r="3.8" fill="#38312e" opacity="0.32"/><circle cx="556" cy="387" r="1.7" fill="#38312e" opacity="0.28"/><circle cx="275" cy="243" r="2.3" fill="#38312e" opacity="0.40"/><circle cx="441" cy="266" r="1.7" fill="#38312e" opacity="0.29"/><circle cx="547" cy="386" r="1.1" fill="#38312e" opacity="0.31"/><circle cx="114" cy="171" r="3.9" fill="#38312e" opacity="0.22"/><circle cx="512" cy="255" r="2.9" fill="#38312e" opacity="0.22"/><circle cx="38" cy="229" r="2.2" fill="#38312e" opacity="0.26"/><circle cx="38" cy="220" r="1.3" fill="#38312e" opacity="0.30"/><circle cx="413" cy="135" r="2.9" fill="#38312e" opacity="0.34"/><circle cx="42" cy="238" r="3.9" fill="#38312e" opacity="0.32"/><circle cx="356" cy="358" r="2.7" fill="#38312e" opacity="0.24"/><circle cx="536" cy="328" r="2.0" fill="#38312e" opacity="0.37"/><circle cx="20" cy="155" r="2.5" fill="#38312e" opacity="0.21"/>
<text x="300" y="440" text-anchor="middle" font-family="Poppins, Arial, sans-serif" font-size="26" font-weight="700" fill="#a04838">30–60 MESH</text>
<text x="300" y="470" text-anchor="middle" font-family="Poppins, Arial, sans-serif" font-size="15" font-weight="500" fill="#777" letter-spacing="2">MEDIUM-COARSE GRADE</text>
</svg>