<svg xmlns="http://www.w3.org/2000/svg" width="600" height="490" viewBox="0 0 600 490">
<defs>
  <radialGradient id="pile" cx="0.5" cy="0.35" r="0.7"><stop offset="0" stop-color="#737373"/><stop offset="1" stop-color="#262626"/></radialGradient>
</defs>
<rect width="600" height="490" fill="#ffffff"/>
<ellipse cx="300" cy="380" rx="230" ry="44" fill="#000" opacity="0.12"/>
<path d="M90 380 Q300 120 510 380 Z" fill="url(#pile)"/>
<path d="M150 380 Q300 190 450 380 Z" fill="#fff" opacity="0.10"/>
<circle cx="247" cy="167" r="2.0" fill="#ffffff" opacity="0.33"/><circle cx="273" cy="278" r="2.4" fill="#ffffff" opacity="0.30"/><circle cx="87" cy="349" r="2.5" fill="#ffffff" opacity="0.32"/><circle cx="132" cy="109" r="1.2" fill="#ffffff" opacity="0.18"/><circle cx="489" cy="301" r="2.6" fill="#ffffff" opacity="0.35"/><circle cx="26" cy="87" r="2.5" fill="#ffffff" opacity="0.20"/><circle cx="174" cy="343" r="1.6" fill="#ffffff" opacity="0.28"/><circle cx="414" cy="362" r="2.2" fill="#ffffff" opacity="0.16"/><circle cx="201" cy="331" r="2.8" fill="#ffffff" opacity="0.21"/><circle cx="430" cy="246" r="1.3" fill="#ffffff" opacity="0.22"/><circle cx="541" cy="353" r="3.1" fill="#ffffff" opacity="0.26"/><circle cx="234" cy="336" r="2.2" fill="#ffffff" opacity="0.22"/><circle cx="83" cy="96" r="2.0" fill="#ffffff" opacity="0.30"/><circle cx="38" cy="53" r="2.1" fill="#ffffff" opacity="0.35"/><circle cx="579" cy="267" r="3.1" fill="#ffffff" opacity="0.28"/><circle cx="20" cy="193" r="2.2" fill="#ffffff" opacity="0.16"/><circle cx="308" cy="268" r="1.7" fill="#ffffff" opacity="0.32"/><circle cx="281" cy="243" r="1.7" fill="#ffffff" opacity="0.27"/><circle cx="155" cy="216" r="1.7" fill="#ffffff" opacity="0.20"/><circle cx="267" cy="321" r="1.2" fill="#ffffff" opacity="0.31"/><circle cx="200" cy="36" r="1.8" fill="#ffffff" opacity="0.26"/><circle cx="26" cy="35" r="1.2" fill="#ffffff" opacity="0.23"/><circle cx="483" cy="339" r="1.1" fill="#ffffff" opacity="0.23"/><circle cx="100" cy="242" r="2.0" fill="#ffffff" opacity="0.27"/><circle cx="577" cy="28" r="1.5" fill="#ffffff" opacity="0.33"/><circle cx="545" cy="315" r="3.2" fill="#ffffff" opacity="0.25"/><circle cx="522" cy="360" r="1.9" fill="#ffffff" opacity="0.29"/><circle cx="467" cy="134" r="2.2" fill="#ffffff" opacity="0.31"/><circle cx="268" cy="20" r="3.3" fill="#ffffff" opacity="0.29"/><circle cx="562" cy="54" r="1.7" fill="#ffffff" opacity="0.33"/><circle cx="109" cy="85" r="2.9" fill="#ffffff" opacity="0.17"/><circle cx="6" cy="282" r="1.4" fill="#ffffff" opacity="0.15"/><circle cx="506" cy="281" r="1.3" fill="#ffffff" opacity="0.35"/><circle cx="557" cy="32" r="2.6" fill="#ffffff" opacity="0.23"/><circle cx="297" cy="104" r="2.2" fill="#ffffff" opacity="0.33"/><circle cx="305" cy="206" r="1.9" fill="#ffffff" opacity="0.15"/><circle cx="79" cy="104" r="2.5" fill="#ffffff" opacity="0.21"/><circle cx="361" cy="217" r="3.1" fill="#ffffff" opacity="0.24"/><circle cx="39" cy="210" r="2.5" fill="#ffffff" opacity="0.21"/><circle cx="501" cy="152" r="1.5" fill="#ffffff" opacity="0.22"/><circle cx="277" cy="41" r="2.3" fill="#ffffff" opacity="0.21"/><circle cx="427" cy="99" r="2.3" fill="#ffffff" opacity="0.33"/><circle cx="510" cy="253" r="3.0" fill="#ffffff" opacity="0.24"/><circle cx="272" cy="258" r="1.8" fill="#ffffff" opacity="0.15"/><circle cx="364" cy="227" r="2.3" fill="#ffffff" opacity="0.32"/><circle cx="462" cy="181" r="1.1" fill="#ffffff" opacity="0.31"/><circle cx="321" cy="292" r="1.2" fill="#ffffff" opacity="0.32"/><circle cx="70" cy="222" r="2.4" fill="#ffffff" opacity="0.19"/><circle cx="111" cy="105" r="2.9" fill="#ffffff" opacity="0.22"/><circle cx="306" cy="106" r="3.4" fill="#ffffff" opacity="0.29"/><circle cx="589" cy="237" r="2.4" fill="#ffffff" opacity="0.28"/><circle cx="357" cy="177" r="1.8" fill="#ffffff" opacity="0.22"/><circle cx="108" cy="201" r="3.3" fill="#ffffff" opacity="0.29"/><circle cx="524" cy="113" r="1.2" fill="#ffffff" opacity="0.30"/><circle cx="161" cy="75" r="2.1" fill="#ffffff" opacity="0.32"/><circle cx="529" cy="108" r="1.6" fill="#ffffff" opacity="0.33"/><circle cx="93" cy="72" r="1.4" fill="#ffffff" opacity="0.25"/><circle cx="324" cy="45" r="2.0" fill="#ffffff" opacity="0.16"/><circle cx="226" cy="60" r="1.8" fill="#ffffff" opacity="0.17"/><circle cx="231" cy="388" r="1.7" fill="#ffffff" opacity="0.24"/><circle cx="307" cy="242" r="1.0" fill="#ffffff" opacity="0.34"/><circle cx="491" cy="111" r="3.1" fill="#ffffff" opacity="0.19"/><circle cx="291" cy="131" r="2.0" fill="#ffffff" opacity="0.15"/><circle cx="74" cy="196" r="2.3" fill="#ffffff" opacity="0.24"/><circle cx="430" cy="326" r="1.1" fill="#ffffff" opacity="0.18"/><circle cx="466" cy="3" r="2.4" fill="#ffffff" opacity="0.27"/><circle cx="520" cy="310" r="2.8" fill="#ffffff" opacity="0.34"/><circle cx="224" cy="118" r="2.9" fill="#ffffff" opacity="0.28"/><circle cx="233" cy="24" r="2.5" fill="#ffffff" opacity="0.16"/><circle cx="267" cy="381" r="3.3" fill="#ffffff" opacity="0.33"/><circle cx="291" cy="93" r="2.8" fill="#ffffff" opacity="0.26"/><circle cx="419" cy="79" r="1.8" fill="#ffffff" opacity="0.23"/><circle cx="227" cy="66" r="2.5" fill="#ffffff" opacity="0.28"/><circle cx="499" cy="150" r="3.2" fill="#ffffff" opacity="0.27"/><circle cx="113" cy="154" r="3.1" fill="#ffffff" opacity="0.14"/><circle cx="573" cy="101" r="2.2" fill="#ffffff" opacity="0.25"/><circle cx="42" cy="109" r="2.6" fill="#ffffff" opacity="0.30"/><circle cx="296" cy="27" r="1.1" fill="#ffffff" opacity="0.23"/><circle cx="223" cy="244" r="2.9" fill="#ffffff" opacity="0.34"/><circle cx="151" cy="115" r="3.2" fill="#ffffff" opacity="0.21"/><circle cx="497" cy="103" r="1.5" fill="#ffffff" opacity="0.25"/><circle cx="445" cy="87" r="2.7" fill="#ffffff" opacity="0.18"/><circle cx="382" cy="144" r="3.3" fill="#ffffff" opacity="0.14"/><circle cx="296" cy="94" r="1.5" fill="#ffffff" opacity="0.16"/><circle cx="474" cy="108" r="2.0" fill="#ffffff" opacity="0.24"/><circle cx="43" cy="147" r="2.2" fill="#ffffff" opacity="0.34"/><circle cx="262" cy="355" r="1.8" fill="#ffffff" opacity="0.17"/><circle cx="359" cy="74" r="3.0" fill="#ffffff" opacity="0.35"/><circle cx="423" cy="248" r="3.1" fill="#ffffff" opacity="0.31"/><circle cx="375" cy="338" r="1.9" fill="#ffffff" opacity="0.28"/><circle cx="559" cy="54" r="3.4" fill="#ffffff" opacity="0.19"/><circle cx="544" cy="345" r="3.0" fill="#ffffff" opacity="0.28"/><circle cx="370" cy="169" r="2.6" fill="#ffffff" opacity="0.34"/><circle cx="389" cy="248" r="2.1" fill="#ffffff" opacity="0.25"/><circle cx="597" cy="128" r="3.4" fill="#ffffff" opacity="0.19"/><circle cx="213" cy="104" r="2.2" fill="#ffffff" opacity="0.34"/><circle cx="308" cy="253" r="1.9" fill="#ffffff" opacity="0.31"/><circle cx="0" cy="338" r="2.4" fill="#ffffff" opacity="0.17"/><circle cx="160" cy="31" r="1.7" fill="#ffffff" opacity="0.16"/><circle cx="217" cy="97" r="2.1" fill="#ffffff" opacity="0.19"/><circle cx="274" cy="51" r="1.5" fill="#ffffff" opacity="0.29"/><circle cx="65" cy="329" r="2.6" fill="#ffffff" opacity="0.33"/><circle cx="46" cy="319" r="1.2" fill="#ffffff" opacity="0.26"/><circle cx="170" cy="270" r="1.4" fill="#ffffff" opacity="0.27"/><circle cx="246" cy="276" r="1.1" fill="#ffffff" opacity="0.35"/><circle cx="544" cy="310" r="1.3" fill="#ffffff" opacity="0.18"/><circle cx="358" cy="240" r="1.7" fill="#ffffff" opacity="0.33"/><circle cx="203" cy="11" r="2.3" fill="#ffffff" opacity="0.20"/><circle cx="580" cy="196" r="2.9" fill="#ffffff" opacity="0.31"/><circle cx="466" cy="64" r="2.2" fill="#ffffff" opacity="0.31"/><circle cx="228" cy="373" r="3.1" fill="#ffffff" opacity="0.32"/><circle cx="375" cy="159" r="1.4" fill="#ffffff" opacity="0.33"/><circle cx="108" cy="45" r="2.4" fill="#ffffff" opacity="0.35"/><circle cx="199" cy="225" r="3.3" fill="#ffffff" opacity="0.15"/><circle cx="344" cy="280" r="1.4" fill="#ffffff" opacity="0.20"/><circle cx="320" cy="70" r="2.2" fill="#ffffff" opacity="0.15"/><circle cx="332" cy="381" r="1.4" fill="#ffffff" opacity="0.27"/><circle cx="542" cy="79" r="1.3" fill="#ffffff" opacity="0.23"/><circle cx="436" cy="149" r="1.6" fill="#ffffff" opacity="0.33"/><circle cx="83" cy="294" r="1.6" fill="#ffffff" opacity="0.19"/><circle cx="163" cy="280" r="1.9" fill="#ffffff" opacity="0.33"/><circle cx="440" cy="225" r="2.7" fill="#ffffff" opacity="0.28"/><circle cx="324" cy="45" r="1.7" fill="#ffffff" opacity="0.30"/><circle cx="435" cy="184" r="2.6" fill="#ffffff" opacity="0.30"/><circle cx="386" cy="327" r="2.9" fill="#ffffff" opacity="0.23"/><circle cx="493" cy="287" r="3.4" fill="#ffffff" opacity="0.15"/><circle cx="463" cy="148" r="2.9" fill="#ffffff" opacity="0.21"/><circle cx="275" cy="268" r="2.5" fill="#ffffff" opacity="0.20"/><circle cx="103" cy="187" r="3.4" fill="#ffffff" opacity="0.19"/><circle cx="415" cy="13" r="3.0" fill="#ffffff" opacity="0.18"/><circle cx="320" cy="254" r="2.7" fill="#ffffff" opacity="0.14"/><circle cx="577" cy="230" r="1.7" fill="#ffffff" opacity="0.30"/><circle cx="507" cy="247" r="1.4" fill="#ffffff" opacity="0.26"/><circle cx="255" cy="72" r="1.8" fill="#ffffff" opacity="0.26"/><circle cx="290" cy="18" r="1.7" fill="#ffffff" opacity="0.28"/><circle cx="265" cy="168" r="2.5" fill="#ffffff" opacity="0.31"/><circle cx="545" cy="36" r="2.4" fill="#ffffff" opacity="0.32"/><circle cx="265" cy="326" r="2.8" fill="#ffffff" opacity="0.25"/><circle cx="79" cy="382" r="2.1" fill="#ffffff" opacity="0.29"/><circle cx="301" cy="141" r="2.8" fill="#ffffff" opacity="0.30"/><circle cx="416" cy="46" r="3.3" fill="#ffffff" opacity="0.33"/><circle cx="572" cy="318" r="1.5" fill="#ffffff" opacity="0.20"/><circle cx="227" cy="104" r="2.8" fill="#ffffff" opacity="0.25"/><circle cx="113" cy="303" r="2.8" fill="#ffffff" opacity="0.16"/><circle cx="331" cy="124" r="2.5" fill="#ffffff" opacity="0.16"/><circle cx="187" cy="233" r="2.0" fill="#ffffff" opacity="0.27"/><circle cx="4" cy="26" r="2.1" fill="#ffffff" opacity="0.14"/><circle cx="86" cy="354" r="2.2" fill="#ffffff" opacity="0.26"/><circle cx="117" cy="8" r="2.7" fill="#ffffff" opacity="0.19"/><circle cx="110" cy="78" r="3.3" fill="#ffffff" opacity="0.22"/><circle cx="11" cy="340" r="1.8" fill="#ffffff" opacity="0.26"/><circle cx="518" cy="271" r="2.9" fill="#ffffff" opacity="0.33"/><circle cx="52" cy="94" r="1.6" fill="#ffffff" opacity="0.31"/><circle cx="494" cy="45" r="2.3" fill="#ffffff" opacity="0.28"/><circle cx="387" cy="103" r="1.0" fill="#ffffff" opacity="0.17"/><circle cx="352" cy="234" r="1.0" fill="#ffffff" opacity="0.33"/><circle cx="276" cy="274" r="2.3" fill="#ffffff" opacity="0.16"/><circle cx="127" cy="300" r="2.1" fill="#ffffff" opacity="0.14"/><circle cx="96" cy="149" r="1.5" fill="#ffffff" opacity="0.31"/><circle cx="147" cy="158" r="1.9" fill="#ffffff" opacity="0.25"/><circle cx="430" cy="317" r="1.2" fill="#ffffff" opacity="0.15"/><circle cx="167" cy="180" r="1.7" fill="#ffffff" opacity="0.20"/><circle cx="236" cy="251" r="1.8" fill="#ffffff" opacity="0.21"/><circle cx="246" cy="222" r="2.5" fill="#ffffff" opacity="0.29"/><circle cx="431" cy="251" r="2.0" fill="#ffffff" opacity="0.34"/><circle cx="172" cy="321" r="2.6" fill="#ffffff" opacity="0.20"/><circle cx="478" cy="135" r="2.8" fill="#ffffff" opacity="0.30"/><circle cx="313" cy="103" r="1.3" fill="#ffffff" opacity="0.32"/><circle cx="55" cy="99" r="1.6" fill="#ffffff" opacity="0.20"/><circle cx="44" cy="185" r="2.3" fill="#ffffff" opacity="0.18"/><circle cx="521" cy="278" r="2.3" fill="#ffffff" opacity="0.16"/><circle cx="472" cy="382" r="2.5" fill="#ffffff" opacity="0.28"/><circle cx="537" cy="319" r="2.7" fill="#ffffff" opacity="0.18"/><circle cx="80" cy="293" r="1.3" fill="#ffffff" opacity="0.18"/><circle cx="483" cy="261" r="3.4" fill="#ffffff" opacity="0.25"/><circle cx="503" cy="211" r="2.1" fill="#ffffff" opacity="0.21"/><circle cx="312" cy="17" r="1.6" fill="#ffffff" opacity="0.18"/><circle cx="321" cy="94" r="3.1" fill="#ffffff" opacity="0.26"/><circle cx="440" cy="36" r="3.2" fill="#ffffff" opacity="0.27"/><circle cx="170" cy="147" r="1.7" fill="#ffffff" opacity="0.16"/><circle cx="114" cy="5" r="1.9" fill="#ffffff" opacity="0.22"/><circle cx="535" cy="50" r="2.7" fill="#ffffff" opacity="0.32"/><circle cx="329" cy="131" r="1.5" fill="#ffffff" opacity="0.34"/><circle cx="46" cy="389" r="1.1" fill="#ffffff" opacity="0.17"/><circle cx="553" cy="148" r="2.2" fill="#ffffff" opacity="0.24"/><circle cx="581" cy="159" r="2.2" fill="#ffffff" opacity="0.29"/><circle cx="86" cy="380" r="1.5" fill="#ffffff" opacity="0.31"/><circle cx="488" cy="238" r="3.0" fill="#ffffff" opacity="0.30"/><circle cx="459" cy="142" r="2.8" fill="#ffffff" opacity="0.16"/><circle cx="424" cy="80" r="3.2" fill="#ffffff" opacity="0.16"/><circle cx="203" cy="94" r="2.6" fill="#ffffff" opacity="0.24"/><circle cx="482" cy="174" r="2.0" fill="#ffffff" opacity="0.16"/><circle cx="546" cy="51" r="2.8" fill="#ffffff" opacity="0.26"/><circle cx="552" cy="158" r="2.0" fill="#ffffff" opacity="0.23"/><circle cx="429" cy="198" r="2.8" fill="#ffffff" opacity="0.25"/><circle cx="184" cy="379" r="2.9" fill="#ffffff" opacity="0.33"/><circle cx="366" cy="263" r="1.4" fill="#ffffff" opacity="0.28"/><circle cx="240" cy="7" r="2.8" fill="#ffffff" opacity="0.19"/><circle cx="532" cy="207" r="2.2" fill="#ffffff" opacity="0.30"/><circle cx="16" cy="374" r="1.1" fill="#ffffff" opacity="0.28"/><circle cx="288" cy="120" r="2.5" fill="#ffffff" opacity="0.15"/><circle cx="366" cy="13" r="1.3" fill="#ffffff" opacity="0.20"/><circle cx="170" cy="320" r="3.3" fill="#ffffff" opacity="0.23"/><circle cx="328" cy="261" r="1.3" fill="#ffffff" opacity="0.32"/><circle cx="320" cy="154" r="3.4" fill="#ffffff" opacity="0.17"/><circle cx="133" cy="119" r="2.0" fill="#ffffff" opacity="0.32"/><circle cx="445" cy="139" r="1.8" fill="#ffffff" opacity="0.21"/><circle cx="101" cy="172" r="1.0" fill="#ffffff" opacity="0.35"/><circle cx="381" cy="381" r="1.1" fill="#ffffff" opacity="0.35"/><circle cx="296" cy="307" r="2.7" fill="#ffffff" opacity="0.30"/><circle cx="414" cy="189" r="3.3" fill="#ffffff" opacity="0.33"/><circle cx="490" cy="47" r="1.9" fill="#ffffff" opacity="0.18"/><circle cx="323" cy="101" r="2.5" fill="#ffffff" opacity="0.35"/><circle cx="575" cy="96" r="2.8" fill="#ffffff" opacity="0.32"/><circle cx="355" cy="326" r="3.1" fill="#ffffff" opacity="0.26"/><circle cx="546" cy="169" r="2.2" fill="#ffffff" opacity="0.22"/><circle cx="410" cy="307" r="1.7" fill="#ffffff" opacity="0.21"/><circle cx="9" cy="144" r="2.5" fill="#ffffff" opacity="0.34"/><circle cx="119" cy="149" r="2.7" fill="#ffffff" opacity="0.15"/><circle cx="315" cy="47" r="2.5" fill="#ffffff" opacity="0.24"/><circle cx="438" cy="220" r="1.2" fill="#ffffff" opacity="0.31"/><circle cx="174" cy="371" r="1.4" fill="#ffffff" opacity="0.30"/><circle cx="251" cy="232" r="2.6" fill="#ffffff" opacity="0.15"/><circle cx="108" cy="365" r="3.4" fill="#ffffff" opacity="0.24"/><circle cx="214" cy="206" r="2.0" fill="#ffffff" opacity="0.16"/><circle cx="359" cy="336" r="1.2" fill="#ffffff" opacity="0.35"/><circle cx="548" cy="357" r="2.7" fill="#ffffff" opacity="0.19"/><circle cx="171" cy="289" r="2.8" fill="#ffffff" opacity="0.30"/><circle cx="2" cy="175" r="2.4" fill="#ffffff" opacity="0.24"/><circle cx="265" cy="18" r="1.5" fill="#ffffff" opacity="0.32"/><circle cx="264" cy="349" r="3.4" fill="#ffffff" opacity="0.22"/><circle cx="161" cy="269" r="3.2" fill="#ffffff" opacity="0.16"/><circle cx="535" cy="114" r="3.0" fill="#ffffff" opacity="0.24"/><circle cx="139" cy="68" r="1.7" fill="#ffffff" opacity="0.32"/><circle cx="196" cy="59" r="1.3" fill="#ffffff" opacity="0.16"/><circle cx="152" cy="19" r="3.4" fill="#ffffff" opacity="0.33"/><circle cx="472" cy="132" r="2.3" fill="#ffffff" opacity="0.21"/><circle cx="536" cy="258" r="1.4" fill="#ffffff" opacity="0.16"/><circle cx="190" cy="335" r="2.4" fill="#ffffff" opacity="0.19"/><circle cx="428" cy="362" r="3.2" fill="#ffffff" opacity="0.28"/><circle cx="581" cy="72" r="2.9" fill="#ffffff" opacity="0.33"/><circle cx="79" cy="350" r="2.4" fill="#ffffff" opacity="0.27"/><circle cx="101" cy="169" r="1.6" fill="#ffffff" opacity="0.19"/><circle cx="332" cy="91" r="2.8" fill="#ffffff" opacity="0.21"/><circle cx="61" cy="304" r="2.6" fill="#ffffff" opacity="0.30"/><circle cx="595" cy="13" r="2.0" fill="#ffffff" opacity="0.24"/><circle cx="171" cy="59" r="2.1" fill="#ffffff" opacity="0.22"/><circle cx="141" cy="102" r="3.5" fill="#ffffff" opacity="0.34"/><circle cx="223" cy="14" r="1.6" fill="#ffffff" opacity="0.16"/><circle cx="240" cy="62" r="2.9" fill="#ffffff" opacity="0.29"/><circle cx="78" cy="158" r="1.0" fill="#ffffff" opacity="0.34"/><circle cx="162" cy="284" r="2.2" fill="#ffffff" opacity="0.14"/><circle cx="47" cy="311" r="1.4" fill="#ffffff" opacity="0.24"/><circle cx="332" cy="313" r="3.4" fill="#ffffff" opacity="0.23"/><circle cx="439" cy="184" r="1.8" fill="#ffffff" opacity="0.21"/><circle cx="414" cy="55" r="1.3" fill="#ffffff" opacity="0.35"/><circle cx="299" cy="27" r="2.8" fill="#ffffff" opacity="0.14"/><circle cx="354" cy="356" r="2.0" fill="#ffffff" opacity="0.15"/><circle cx="517" cy="77" r="3.1" fill="#ffffff" opacity="0.18"/><circle cx="517" cy="382" r="1.7" fill="#ffffff" opacity="0.35"/><circle cx="576" cy="89" r="3.2" fill="#ffffff" opacity="0.18"/><circle cx="536" cy="303" r="2.1" fill="#ffffff" opacity="0.19"/><circle cx="44" cy="126" r="2.3" fill="#ffffff" opacity="0.24"/><circle cx="379" cy="371" r="1.9" fill="#ffffff" opacity="0.22"/><circle cx="259" cy="361" r="1.1" fill="#ffffff" opacity="0.34"/><circle cx="229" cy="306" r="1.3" fill="#ffffff" opacity="0.30"/><circle cx="272" cy="186" r="2.6" fill="#ffffff" opacity="0.31"/><circle cx="563" cy="42" r="2.9" fill="#ffffff" opacity="0.32"/><circle cx="76" cy="60" r="2.1" fill="#ffffff" opacity="0.34"/><circle cx="171" cy="87" r="3.2" fill="#ffffff" opacity="0.22"/><circle cx="447" cy="342" r="2.4" fill="#ffffff" opacity="0.22"/><circle cx="189" cy="270" r="3.2" fill="#ffffff" opacity="0.23"/><circle cx="516" cy="126" r="2.5" fill="#ffffff" opacity="0.23"/><circle cx="66" cy="71" r="2.0" fill="#ffffff" opacity="0.31"/><circle cx="269" cy="183" r="2.3" fill="#ffffff" opacity="0.22"/><circle cx="46" cy="52" r="2.2" fill="#ffffff" opacity="0.35"/><circle cx="147" cy="330" r="2.0" fill="#ffffff" opacity="0.32"/><circle cx="107" cy="78" r="1.1" fill="#ffffff" opacity="0.27"/><circle cx="7" cy="194" r="3.2" fill="#ffffff" opacity="0.30"/><circle cx="287" cy="103" r="1.3" fill="#ffffff" opacity="0.16"/><circle cx="550" cy="190" r="1.3" fill="#ffffff" opacity="0.16"/><circle cx="510" cy="57" r="2.5" fill="#ffffff" opacity="0.27"/><circle cx="29" cy="14" r="1.6" fill="#ffffff" opacity="0.28"/><circle cx="412" cy="253" r="1.7" fill="#ffffff" opacity="0.33"/><circle cx="403" cy="170" r="3.5" fill="#ffffff" opacity="0.22"/><circle cx="0" cy="241" r="2.1" fill="#ffffff" opacity="0.24"/><circle cx="156" cy="389" r="2.0" fill="#ffffff" opacity="0.32"/><circle cx="216" cy="268" r="2.0" fill="#ffffff" opacity="0.20"/><circle cx="23" cy="81" r="2.5" fill="#ffffff" opacity="0.29"/><circle cx="438" cy="33" r="2.4" fill="#ffffff" opacity="0.24"/><circle cx="52" cy="225" r="3.5" fill="#ffffff" opacity="0.15"/><circle cx="569" cy="137" r="2.5" fill="#ffffff" opacity="0.28"/><circle cx="513" cy="155" r="2.7" fill="#ffffff" opacity="0.21"/><circle cx="55" cy="167" r="1.1" fill="#ffffff" opacity="0.28"/><circle cx="161" cy="46" r="1.7" fill="#ffffff" opacity="0.15"/><circle cx="387" cy="212" r="2.7" fill="#ffffff" opacity="0.30"/><circle cx="100" cy="166" r="3.0" fill="#ffffff" opacity="0.26"/><circle cx="56" cy="259" r="3.3" fill="#ffffff" opacity="0.32"/><circle cx="477" cy="212" r="1.6" fill="#ffffff" opacity="0.23"/><circle cx="153" cy="137" r="2.5" fill="#ffffff" opacity="0.29"/><circle cx="190" cy="4" r="3.4" fill="#ffffff" opacity="0.28"/><circle cx="73" cy="323" r="3.2" fill="#ffffff" opacity="0.28"/><circle cx="415" cy="163" r="3.2" fill="#ffffff" opacity="0.31"/><circle cx="476" cy="380" r="1.2" fill="#ffffff" opacity="0.29"/><circle cx="309" cy="291" r="3.4" fill="#ffffff" opacity="0.28"/><circle cx="180" cy="226" r="2.4" fill="#ffffff" opacity="0.18"/><circle cx="392" cy="250" r="2.6" fill="#ffffff" opacity="0.14"/><circle cx="0" cy="127" r="3.0" fill="#ffffff" opacity="0.18"/><circle cx="554" cy="76" r="1.9" fill="#ffffff" opacity="0.19"/><circle cx="554" cy="84" r="1.5" fill="#ffffff" opacity="0.28"/><circle cx="525" cy="347" r="1.6" fill="#ffffff" opacity="0.32"/><circle cx="209" cy="223" r="2.3" fill="#ffffff" opacity="0.23"/><circle cx="16" cy="146" r="2.4" fill="#ffffff" opacity="0.15"/><circle cx="142" cy="120" r="3.2" fill="#ffffff" opacity="0.18"/><circle cx="399" cy="300" r="3.4" fill="#ffffff" opacity="0.34"/><circle cx="143" cy="183" r="2.8" fill="#ffffff" opacity="0.20"/><circle cx="589" cy="128" r="1.7" fill="#ffffff" opacity="0.21"/><circle cx="488" cy="58" r="1.5" fill="#ffffff" opacity="0.17"/><circle cx="524" cy="387" r="1.0" fill="#ffffff" opacity="0.17"/><circle cx="530" cy="23" r="2.3" fill="#ffffff" opacity="0.16"/><circle cx="118" cy="320" r="1.4" fill="#ffffff" opacity="0.35"/><circle cx="474" cy="156" r="2.8" fill="#ffffff" opacity="0.27"/><circle cx="477" cy="342" r="1.6" fill="#ffffff" opacity="0.30"/><circle cx="572" cy="53" r="1.1" fill="#ffffff" opacity="0.25"/><circle cx="402" cy="19" r="2.8" fill="#ffffff" opacity="0.29"/><circle cx="352" cy="196" r="2.7" fill="#ffffff" opacity="0.20"/><circle cx="300" cy="195" r="1.6" fill="#ffffff" opacity="0.24"/><circle cx="566" cy="305" r="2.5" fill="#ffffff" opacity="0.18"/><circle cx="137" cy="334" r="2.6" fill="#ffffff" opacity="0.27"/><circle cx="227" cy="79" r="3.0" fill="#ffffff" opacity="0.29"/><circle cx="117" cy="316" r="3.3" fill="#ffffff" opacity="0.18"/><circle cx="249" cy="25" r="1.4" fill="#ffffff" opacity="0.22"/><circle cx="224" cy="62" r="2.9" fill="#ffffff" opacity="0.33"/><circle cx="160" cy="369" r="1.1" fill="#ffffff" opacity="0.26"/><circle cx="596" cy="305" r="2.1" fill="#ffffff" opacity="0.32"/><circle cx="109" cy="276" r="2.0" fill="#ffffff" opacity="0.34"/><circle cx="431" cy="139" r="3.2" fill="#ffffff" opacity="0.34"/><circle cx="372" cy="150" r="2.9" fill="#ffffff" opacity="0.16"/><circle cx="215" cy="61" r="1.8" fill="#ffffff" opacity="0.15"/><circle cx="317" cy="163" r="2.4" fill="#ffffff" opacity="0.16"/>
<circle cx="460" cy="205" r="2.8" fill="#262626" opacity="0.31"/><circle cx="146" cy="255" r="3.9" fill="#262626" opacity="0.36"/><circle cx="381" cy="287" r="1.9" fill="#262626" opacity="0.47"/><circle cx="156" cy="145" r="2.8" fill="#262626" opacity="0.27"/><circle cx="245" cy="222" r="1.1" fill="#262626" opacity="0.21"/><circle cx="338" cy="383" r="1.5" fill="#262626" opacity="0.35"/><circle cx="349" cy="14" r="1.1" fill="#262626" opacity="0.49"/><circle cx="557" cy="93" r="1.4" fill="#262626" opacity="0.21"/><circle cx="64" cy="61" r="3.6" fill="#262626" opacity="0.35"/><circle cx="348" cy="47" r="3.2" fill="#262626" opacity="0.44"/><circle cx="246" cy="165" r="2.2" fill="#262626" opacity="0.39"/><circle cx="73" cy="6" r="1.6" fill="#262626" opacity="0.33"/><circle cx="155" cy="140" r="4.0" fill="#262626" opacity="0.47"/><circle cx="55" cy="303" r="2.1" fill="#262626" opacity="0.44"/><circle cx="354" cy="23" r="3.8" fill="#262626" opacity="0.29"/><circle cx="267" cy="34" r="3.7" fill="#262626" opacity="0.49"/><circle cx="32" cy="332" r="2.8" fill="#262626" opacity="0.42"/><circle cx="17" cy="298" r="2.3" fill="#262626" opacity="0.37"/><circle cx="383" cy="84" r="3.9" fill="#262626" opacity="0.50"/><circle cx="417" cy="173" r="3.2" fill="#262626" opacity="0.44"/><circle cx="1" cy="224" r="1.1" fill="#262626" opacity="0.44"/><circle cx="8" cy="10" r="2.2" fill="#262626" opacity="0.50"/><circle cx="522" cy="66" r="2.1" fill="#262626" opacity="0.31"/><circle cx="560" cy="133" r="2.7" fill="#262626" opacity="0.43"/><circle cx="425" cy="291" r="3.4" fill="#262626" opacity="0.43"/><circle cx="586" cy="258" r="1.1" fill="#262626" opacity="0.33"/><circle cx="489" cy="111" r="2.3" fill="#262626" opacity="0.38"/><circle cx="304" cy="383" r="1.5" fill="#262626" opacity="0.24"/><circle cx="473" cy="103" r="2.7" fill="#262626" opacity="0.46"/><circle cx="486" cy="205" r="2.5" fill="#262626" opacity="0.49"/><circle cx="199" cy="145" r="2.8" fill="#262626" opacity="0.42"/><circle cx="118" cy="35" r="2.8" fill="#262626" opacity="0.49"/><circle cx="37" cy="24" r="3.1" fill="#262626" opacity="0.30"/><circle cx="503" cy="107" r="1.7" fill="#262626" opacity="0.35"/><circle cx="505" cy="170" r="3.4" fill="#262626" opacity="0.24"/><circle cx="527" cy="280" r="1.7" fill="#262626" opacity="0.45"/><circle cx="510" cy="81" r="3.4" fill="#262626" opacity="0.27"/><circle cx="239" cy="141" r="1.4" fill="#262626" opacity="0.34"/><circle cx="187" cy="28" r="3.6" fill="#262626" opacity="0.25"/><circle cx="61" cy="334" r="1.9" fill="#262626" opacity="0.40"/><circle cx="524" cy="27" r="3.6" fill="#262626" opacity="0.24"/><circle cx="304" cy="257" r="1.3" fill="#262626" opacity="0.45"/><circle cx="156" cy="183" r="2.3" fill="#262626" opacity="0.26"/><circle cx="552" cy="201" r="2.9" fill="#262626" opacity="0.39"/><circle cx="133" cy="1" r="1.8" fill="#262626" opacity="0.28"/><circle cx="228" cy="373" r="3.2" fill="#262626" opacity="0.33"/><circle cx="598" cy="130" r="1.5" fill="#262626" opacity="0.39"/><circle cx="372" cy="347" r="2.4" fill="#262626" opacity="0.36"/><circle cx="379" cy="87" r="1.2" fill="#262626" opacity="0.35"/><circle cx="112" cy="246" r="2.7" fill="#262626" opacity="0.50"/><circle cx="350" cy="108" r="1.3" fill="#262626" opacity="0.20"/><circle cx="438" cy="290" r="3.4" fill="#262626" opacity="0.32"/><circle cx="20" cy="156" r="1.9" fill="#262626" opacity="0.38"/><circle cx="143" cy="73" r="2.8" fill="#262626" opacity="0.33"/><circle cx="55" cy="222" r="1.9" fill="#262626" opacity="0.44"/><circle cx="81" cy="255" r="2.9" fill="#262626" opacity="0.28"/><circle cx="518" cy="273" r="3.4" fill="#262626" opacity="0.45"/><circle cx="595" cy="249" r="2.1" fill="#262626" opacity="0.24"/><circle cx="5" cy="265" r="2.9" fill="#262626" opacity="0.31"/><circle cx="153" cy="303" r="2.0" fill="#262626" opacity="0.45"/><circle cx="541" cy="121" r="3.9" fill="#262626" opacity="0.30"/><circle cx="368" cy="318" r="2.8" fill="#262626" opacity="0.30"/><circle cx="153" cy="181" r="3.2" fill="#262626" opacity="0.40"/><circle cx="207" cy="85" r="1.7" fill="#262626" opacity="0.46"/><circle cx="89" cy="327" r="1.0" fill="#262626" opacity="0.42"/><circle cx="18" cy="74" r="2.1" fill="#262626" opacity="0.45"/><circle cx="540" cy="98" r="3.3" fill="#262626" opacity="0.39"/><circle cx="468" cy="72" r="2.5" fill="#262626" opacity="0.40"/><circle cx="561" cy="33" r="4.0" fill="#262626" opacity="0.24"/><circle cx="191" cy="327" r="1.6" fill="#262626" opacity="0.35"/><circle cx="386" cy="68" r="1.2" fill="#262626" opacity="0.36"/><circle cx="294" cy="300" r="2.9" fill="#262626" opacity="0.30"/><circle cx="562" cy="49" r="3.3" fill="#262626" opacity="0.23"/><circle cx="357" cy="252" r="3.0" fill="#262626" opacity="0.46"/><circle cx="434" cy="109" r="2.4" fill="#262626" opacity="0.29"/><circle cx="383" cy="61" r="3.3" fill="#262626" opacity="0.29"/><circle cx="499" cy="204" r="1.3" fill="#262626" opacity="0.32"/><circle cx="190" cy="386" r="2.0" fill="#262626" opacity="0.37"/><circle cx="532" cy="158" r="1.2" fill="#262626" opacity="0.47"/><circle cx="342" cy="380" r="2.2" fill="#262626" opacity="0.39"/><circle cx="235" cy="286" r="1.3" fill="#262626" opacity="0.24"/><circle cx="40" cy="258" r="3.1" fill="#262626" opacity="0.41"/><circle cx="479" cy="21" r="3.2" fill="#262626" opacity="0.50"/><circle cx="397" cy="71" r="2.8" fill="#262626" opacity="0.38"/><circle cx="285" cy="174" r="2.5" fill="#262626" opacity="0.48"/><circle cx="344" cy="94" r="1.7" fill="#262626" opacity="0.26"/><circle cx="599" cy="105" r="2.9" fill="#262626" opacity="0.34"/><circle cx="566" cy="40" r="2.6" fill="#262626" opacity="0.27"/><circle cx="428" cy="199" r="3.7" fill="#262626" opacity="0.37"/><circle cx="195" cy="183" r="3.8" fill="#262626" opacity="0.33"/><circle cx="73" cy="54" r="1.1" fill="#262626" opacity="0.43"/><circle cx="186" cy="276" r="1.7" fill="#262626" opacity="0.43"/><circle cx="87" cy="110" r="3.7" fill="#262626" opacity="0.28"/><circle cx="344" cy="234" r="2.0" fill="#262626" opacity="0.27"/><circle cx="180" cy="385" r="1.7" fill="#262626" opacity="0.22"/><circle cx="546" cy="63" r="2.1" fill="#262626" opacity="0.22"/><circle cx="410" cy="119" r="2.0" fill="#262626" opacity="0.46"/><circle cx="388" cy="166" r="2.2" fill="#262626" opacity="0.32"/><circle cx="190" cy="344" r="1.8" fill="#262626" opacity="0.37"/><circle cx="401" cy="196" r="3.6" fill="#262626" opacity="0.20"/><circle cx="487" cy="217" r="2.0" fill="#262626" opacity="0.25"/><circle cx="511" cy="230" r="3.9" fill="#262626" opacity="0.29"/><circle cx="447" cy="49" r="3.7" fill="#262626" opacity="0.39"/><circle cx="61" cy="230" r="3.3" fill="#262626" opacity="0.47"/><circle cx="250" cy="37" r="1.1" fill="#262626" opacity="0.34"/><circle cx="420" cy="388" r="3.7" fill="#262626" opacity="0.43"/><circle cx="473" cy="312" r="3.8" fill="#262626" opacity="0.23"/><circle cx="228" cy="41" r="3.2" fill="#262626" opacity="0.44"/><circle cx="45" cy="374" r="2.7" fill="#262626" opacity="0.30"/><circle cx="87" cy="158" r="2.5" fill="#262626" opacity="0.46"/><circle cx="17" cy="34" r="3.7" fill="#262626" opacity="0.29"/><circle cx="394" cy="49" r="1.4" fill="#262626" opacity="0.44"/><circle cx="251" cy="135" r="1.2" fill="#262626" opacity="0.27"/><circle cx="101" cy="260" r="3.2" fill="#262626" opacity="0.31"/><circle cx="413" cy="155" r="3.1" fill="#262626" opacity="0.35"/><circle cx="235" cy="345" r="1.6" fill="#262626" opacity="0.20"/><circle cx="131" cy="362" r="2.7" fill="#262626" opacity="0.35"/><circle cx="0" cy="97" r="1.2" fill="#262626" opacity="0.29"/><circle cx="517" cy="363" r="2.5" fill="#262626" opacity="0.27"/><circle cx="38" cy="51" r="1.7" fill="#262626" opacity="0.44"/>
<text x="300" y="440" text-anchor="middle" font-family="Poppins, Arial, sans-serif" font-size="26" font-weight="700" fill="#a04838">-100 MESH</text>
<text x="300" y="470" text-anchor="middle" font-family="Poppins, Arial, sans-serif" font-size="15" font-weight="500" fill="#777" letter-spacing="2">FINE GRADE</text>
</svg>