<svg xmlns="http://www.w3.org/2000/svg" width="1672" height="941" viewBox="0 0 1672 941">
<defs><linearGradient id="g" x1="0" y1="0" x2="1" y2="1"><stop offset="0" stop-color="hsl(43,28%,30%)"/><stop offset="1" stop-color="hsl(53,30%,14%)"/></linearGradient></defs>
<rect width="1672" height="941" fill="url(#g)"/>
<circle cx="1460" cy="410" r="260" fill="#fff" opacity="0.06"/>
<path d="M0 941 L0 720 Q420 560 836 700 T1672 640 L1672 941 Z" fill="#000" opacity="0.25"/>
<circle cx="403" cy="92" r="4.7" fill="#e8c9b0" opacity="0.16"/><circle cx="1044" cy="144" r="5.9" fill="#e8c9b0" opacity="0.24"/><circle cx="492" cy="60" r="5.3" fill="#e8c9b0" opacity="0.28"/><circle cx="565" cy="100" r="5.9" fill="#e8c9b0" opacity="0.28"/><circle cx="773" cy="104" r="5.0" fill="#e8c9b0" opacity="0.29"/><circle cx="504" cy="348" r="5.5" fill="#e8c9b0" opacity="0.25"/><circle cx="1533" cy="585" r="2.9" fill="#e8c9b0" opacity="0.29"/><circle cx="1354" cy="814" r="3.3" fill="#e8c9b0" opacity="0.17"/><circle cx="1629" cy="871" r="2.4" fill="#e8c9b0" opacity="0.13"/><circle cx="223" cy="622" r="3.0" fill="#e8c9b0" opacity="0.15"/><circle cx="868" cy="906" r="3.9" fill="#e8c9b0" opacity="0.13"/><circle cx="233" cy="282" r="3.3" fill="#e8c9b0" opacity="0.16"/><circle cx="137" cy="320" r="2.9" fill="#e8c9b0" opacity="0.16"/><circle cx="142" cy="533" r="5.0" fill="#e8c9b0" opacity="0.18"/><circle cx="182" cy="398" r="2.3" fill="#e8c9b0" opacity="0.14"/><circle cx="438" cy="850" r="2.2" fill="#e8c9b0" opacity="0.21"/><circle cx="24" cy="334" r="5.9" fill="#e8c9b0" opacity="0.27"/><circle cx="785" cy="248" r="3.1" fill="#e8c9b0" opacity="0.22"/><circle cx="734" cy="249" r="2.1" fill="#e8c9b0" opacity="0.26"/><circle cx="1671" cy="905" r="4.0" fill="#e8c9b0" opacity="0.19"/><circle cx="194" cy="930" r="3.8" fill="#e8c9b0" opacity="0.13"/><circle cx="1621" cy="613" r="5.0" fill="#e8c9b0" opacity="0.22"/><circle cx="357" cy="754" r="5.0" fill="#e8c9b0" opacity="0.21"/><circle cx="1572" cy="168" r="5.8" fill="#e8c9b0" opacity="0.22"/><circle cx="186" cy="788" r="5.4" fill="#e8c9b0" opacity="0.27"/><circle cx="736" cy="569" r="4.4" fill="#e8c9b0" opacity="0.25"/><circle cx="695" cy="113" r="3.3" fill="#e8c9b0" opacity="0.18"/><circle cx="73" cy="165" r="4.7" fill="#e8c9b0" opacity="0.21"/><circle cx="315" cy="798" r="2.2" fill="#e8c9b0" opacity="0.12"/><circle cx="1098" cy="842" r="5.4" fill="#e8c9b0" opacity="0.24"/><circle cx="755" cy="242" r="5.8" fill="#e8c9b0" opacity="0.24"/><circle cx="333" cy="828" r="5.0" fill="#e8c9b0" opacity="0.29"/><circle cx="634" cy="412" r="4.3" fill="#e8c9b0" opacity="0.17"/><circle cx="497" cy="874" r="5.3" fill="#e8c9b0" opacity="0.28"/><circle cx="1259" cy="614" r="2.2" fill="#e8c9b0" opacity="0.27"/><circle cx="333" cy="594" r="4.6" fill="#e8c9b0" opacity="0.16"/><circle cx="1194" cy="75" r="2.4" fill="#e8c9b0" opacity="0.26"/><circle cx="540" cy="473" r="4.5" fill="#e8c9b0" opacity="0.22"/><circle cx="1428" cy="764" r="3.0" fill="#e8c9b0" opacity="0.14"/><circle cx="801" cy="876" r="3.0" fill="#e8c9b0" opacity="0.26"/><circle cx="761" cy="897" r="2.2" fill="#e8c9b0" opacity="0.16"/><circle cx="1292" cy="920" r="5.8" fill="#e8c9b0" opacity="0.27"/><circle cx="480" cy="505" r="2.0" fill="#e8c9b0" opacity="0.20"/><circle cx="826" cy="89" r="2.7" fill="#e8c9b0" opacity="0.28"/><circle cx="892" cy="630" r="5.4" fill="#e8c9b0" opacity="0.29"/><circle cx="1591" cy="224" r="4.4" fill="#e8c9b0" opacity="0.13"/><circle cx="402" cy="356" r="2.2" fill="#e8c9b0" opacity="0.14"/><circle cx="1067" cy="766" r="3.5" fill="#e8c9b0" opacity="0.15"/><circle cx="1087" cy="140" r="5.5" fill="#e8c9b0" opacity="0.12"/><circle cx="376" cy="859" r="4.8" fill="#e8c9b0" opacity="0.18"/><circle cx="117" cy="607" r="3.9" fill="#e8c9b0" opacity="0.13"/><circle cx="1545" cy="96" r="5.0" fill="#e8c9b0" opacity="0.21"/><circle cx="1105" cy="93" r="5.5" fill="#e8c9b0" opacity="0.30"/><circle cx="12" cy="337" r="4.5" fill="#e8c9b0" opacity="0.22"/><circle cx="1461" cy="502" r="3.4" fill="#e8c9b0" opacity="0.30"/><circle cx="510" cy="587" r="3.3" fill="#e8c9b0" opacity="0.12"/><circle cx="947" cy="400" r="2.1" fill="#e8c9b0" opacity="0.27"/><circle cx="1120" cy="722" r="4.0" fill="#e8c9b0" opacity="0.23"/><circle cx="417" cy="463" r="4.4" fill="#e8c9b0" opacity="0.21"/><circle cx="834" cy="379" r="2.7" fill="#e8c9b0" opacity="0.16"/><circle cx="458" cy="917" r="2.7" fill="#e8c9b0" opacity="0.18"/><circle cx="122" cy="316" r="4.8" fill="#e8c9b0" opacity="0.17"/><circle cx="1621" cy="367" r="2.5" fill="#e8c9b0" opacity="0.28"/><circle cx="526" cy="433" r="5.3" fill="#e8c9b0" opacity="0.18"/><circle cx="1342" cy="61" r="3.8" fill="#e8c9b0" opacity="0.16"/><circle cx="1532" cy="323" r="5.1" fill="#e8c9b0" opacity="0.25"/><circle cx="237" cy="845" r="4.9" fill="#e8c9b0" opacity="0.18"/><circle cx="86" cy="887" r="4.1" fill="#e8c9b0" opacity="0.13"/><circle cx="611" cy="201" r="2.9" fill="#e8c9b0" opacity="0.24"/><circle cx="998" cy="543" r="5.5" fill="#e8c9b0" opacity="0.15"/><circle cx="1215" cy="466" r="3.7" fill="#e8c9b0" opacity="0.27"/><circle cx="1163" cy="376" r="2.3" fill="#e8c9b0" opacity="0.27"/><circle cx="1250" cy="785" r="5.7" fill="#e8c9b0" opacity="0.28"/><circle cx="748" cy="535" r="4.6" fill="#e8c9b0" opacity="0.23"/><circle cx="1269" cy="91" r="4.1" fill="#e8c9b0" opacity="0.20"/><circle cx="652" cy="302" r="2.8" fill="#e8c9b0" opacity="0.29"/><circle cx="965" cy="932" r="3.7" fill="#e8c9b0" opacity="0.24"/><circle cx="1035" cy="559" r="4.1" fill="#e8c9b0" opacity="0.12"/><circle cx="519" cy="772" r="5.3" fill="#e8c9b0" opacity="0.14"/><circle cx="198" cy="488" r="5.5" fill="#e8c9b0" opacity="0.15"/><circle cx="415" cy="758" r="4.6" fill="#e8c9b0" opacity="0.13"/><circle cx="405" cy="86" r="4.7" fill="#e8c9b0" opacity="0.14"/><circle cx="920" cy="119" r="2.8" fill="#e8c9b0" opacity="0.15"/><circle cx="1015" cy="582" r="2.3" fill="#e8c9b0" opacity="0.20"/><circle cx="604" cy="470" r="2.8" fill="#e8c9b0" opacity="0.19"/><circle cx="1509" cy="696" r="4.7" fill="#e8c9b0" opacity="0.17"/><circle cx="980" cy="47" r="5.2" fill="#e8c9b0" opacity="0.17"/><circle cx="430" cy="124" r="4.0" fill="#e8c9b0" opacity="0.29"/><circle cx="50" cy="541" r="4.6" fill="#e8c9b0" opacity="0.16"/><circle cx="928" cy="27" r="2.9" fill="#e8c9b0" opacity="0.26"/><circle cx="729" cy="933" r="5.0" fill="#e8c9b0" opacity="0.15"/><circle cx="185" cy="124" r="5.5" fill="#e8c9b0" opacity="0.17"/><circle cx="41" cy="907" r="5.6" fill="#e8c9b0" opacity="0.23"/><circle cx="1156" cy="99" r="3.1" fill="#e8c9b0" opacity="0.15"/><circle cx="50" cy="180" r="3.3" fill="#e8c9b0" opacity="0.24"/><circle cx="1151" cy="482" r="3.1" fill="#e8c9b0" opacity="0.17"/><circle cx="508" cy="289" r="3.8" fill="#e8c9b0" opacity="0.19"/><circle cx="890" cy="728" r="2.5" fill="#e8c9b0" opacity="0.14"/><circle cx="356" cy="501" r="2.7" fill="#e8c9b0" opacity="0.27"/><circle cx="1239" cy="917" r="4.3" fill="#e8c9b0" opacity="0.20"/><circle cx="1491" cy="895" r="2.7" fill="#e8c9b0" opacity="0.18"/><circle cx="7" cy="182" r="5.1" fill="#e8c9b0" opacity="0.20"/><circle cx="1090" cy="512" r="3.4" fill="#e8c9b0" opacity="0.24"/><circle cx="1002" cy="58" r="5.6" fill="#e8c9b0" opacity="0.16"/><circle cx="1664" cy="607" r="3.2" fill="#e8c9b0" opacity="0.18"/><circle cx="681" cy="906" r="3.9" fill="#e8c9b0" opacity="0.18"/><circle cx="205" cy="744" r="2.1" fill="#e8c9b0" opacity="0.14"/><circle cx="424" cy="357" r="4.9" fill="#e8c9b0" opacity="0.22"/><circle cx="518" cy="870" r="4.8" fill="#e8c9b0" opacity="0.17"/><circle cx="1356" cy="801" r="4.5" fill="#e8c9b0" opacity="0.26"/><circle cx="832" cy="245" r="5.1" fill="#e8c9b0" opacity="0.27"/><circle cx="36" cy="362" r="4.2" fill="#e8c9b0" opacity="0.27"/><circle cx="1540" cy="473" r="3.1" fill="#e8c9b0" opacity="0.23"/><circle cx="550" cy="776" r="2.5" fill="#e8c9b0" opacity="0.20"/><circle cx="635" cy="369" r="5.9" fill="#e8c9b0" opacity="0.27"/><circle cx="942" cy="629" r="4.4" fill="#e8c9b0" opacity="0.29"/><circle cx="297" cy="897" r="3.3" fill="#e8c9b0" opacity="0.26"/><circle cx="1547" cy="231" r="4.3" fill="#e8c9b0" opacity="0.17"/><circle cx="146" cy="610" r="5.2" fill="#e8c9b0" opacity="0.20"/><circle cx="1376" cy="300" r="2.6" fill="#e8c9b0" opacity="0.23"/><circle cx="186" cy="162" r="2.3" fill="#e8c9b0" opacity="0.30"/><circle cx="986" cy="372" r="5.9" fill="#e8c9b0" opacity="0.24"/><circle cx="474" cy="80" r="2.8" fill="#e8c9b0" opacity="0.18"/><circle cx="412" cy="879" r="3.0" fill="#e8c9b0" opacity="0.26"/><circle cx="763" cy="480" r="2.8" fill="#e8c9b0" opacity="0.17"/><circle cx="106" cy="794" r="4.9" fill="#e8c9b0" opacity="0.22"/><circle cx="1614" cy="157" r="5.0" fill="#e8c9b0" opacity="0.30"/><circle cx="1103" cy="238" r="2.4" fill="#e8c9b0" opacity="0.29"/><circle cx="136" cy="711" r="2.0" fill="#e8c9b0" opacity="0.26"/><circle cx="1413" cy="721" r="5.8" fill="#e8c9b0" opacity="0.23"/><circle cx="1001" cy="592" r="3.4" fill="#e8c9b0" opacity="0.27"/><circle cx="486" cy="341" r="2.3" fill="#e8c9b0" opacity="0.23"/><circle cx="1023" cy="248" r="4.3" fill="#e8c9b0" opacity="0.20"/><circle cx="667" cy="925" r="3.9" fill="#e8c9b0" opacity="0.18"/><circle cx="1068" cy="529" r="2.6" fill="#e8c9b0" opacity="0.16"/><circle cx="1212" cy="202" r="2.9" fill="#e8c9b0" opacity="0.29"/><circle cx="340" cy="460" r="4.2" fill="#e8c9b0" opacity="0.14"/><circle cx="399" cy="451" r="4.2" fill="#e8c9b0" opacity="0.24"/><circle cx="372" cy="146" r="3.5" fill="#e8c9b0" opacity="0.26"/><circle cx="1431" cy="333" r="4.8" fill="#e8c9b0" opacity="0.15"/><circle cx="823" cy="401" r="3.3" fill="#e8c9b0" opacity="0.21"/><circle cx="1188" cy="370" r="5.3" fill="#e8c9b0" opacity="0.24"/><circle cx="729" cy="362" r="3.2" fill="#e8c9b0" opacity="0.22"/><circle cx="1324" cy="94" r="3.4" fill="#e8c9b0" opacity="0.21"/><circle cx="104" cy="673" r="3.3" fill="#e8c9b0" opacity="0.23"/><circle cx="235" cy="514" r="2.6" fill="#e8c9b0" opacity="0.23"/><circle cx="377" cy="423" r="5.6" fill="#e8c9b0" opacity="0.29"/><circle cx="161" cy="354" r="5.4" fill="#e8c9b0" opacity="0.28"/><circle cx="670" cy="463" r="2.9" fill="#e8c9b0" opacity="0.13"/><circle cx="650" cy="714" r="4.6" fill="#e8c9b0" opacity="0.28"/><circle cx="577" cy="934" r="3.9" fill="#e8c9b0" opacity="0.17"/><circle cx="1532" cy="537" r="2.5" fill="#e8c9b0" opacity="0.23"/><circle cx="1202" cy="200" r="2.4" fill="#e8c9b0" opacity="0.13"/><circle cx="1067" cy="55" r="5.0" fill="#e8c9b0" opacity="0.27"/><circle cx="172" cy="310" r="2.2" fill="#e8c9b0" opacity="0.22"/><circle cx="1081" cy="70" r="5.1" fill="#e8c9b0" opacity="0.27"/><circle cx="491" cy="495" r="2.1" fill="#e8c9b0" opacity="0.16"/><circle cx="583" cy="472" r="5.8" fill="#e8c9b0" opacity="0.28"/><circle cx="673" cy="883" r="2.1" fill="#e8c9b0" opacity="0.17"/><circle cx="741" cy="935" r="5.7" fill="#e8c9b0" opacity="0.25"/><circle cx="1142" cy="265" r="3.7" fill="#e8c9b0" opacity="0.28"/><circle cx="1551" cy="18" r="2.7" fill="#e8c9b0" opacity="0.15"/><circle cx="1336" cy="392" r="4.1" fill="#e8c9b0" opacity="0.28"/><circle cx="484" cy="131" r="3.8" fill="#e8c9b0" opacity="0.20"/><circle cx="772" cy="232" r="2.1" fill="#e8c9b0" opacity="0.14"/><circle cx="22" cy="63" r="3.4" fill="#e8c9b0" opacity="0.26"/><circle cx="783" cy="50" r="4.6" fill="#e8c9b0" opacity="0.23"/><circle cx="1445" cy="122" r="2.2" fill="#e8c9b0" opacity="0.25"/><circle cx="1450" cy="420" r="5.5" fill="#e8c9b0" opacity="0.24"/><circle cx="1167" cy="726" r="3.2" fill="#e8c9b0" opacity="0.18"/><circle cx="1479" cy="849" r="5.3" fill="#e8c9b0" opacity="0.29"/><circle cx="676" cy="856" r="5.2" fill="#e8c9b0" opacity="0.17"/><circle cx="1386" cy="886" r="2.7" fill="#e8c9b0" opacity="0.17"/><circle cx="917" cy="759" r="3.8" fill="#e8c9b0" opacity="0.23"/><circle cx="837" cy="619" r="4.2" fill="#e8c9b0" opacity="0.23"/><circle cx="561" cy="856" r="4.9" fill="#e8c9b0" opacity="0.25"/><circle cx="525" cy="422" r="4.8" fill="#e8c9b0" opacity="0.22"/><circle cx="1385" cy="652" r="3.1" fill="#e8c9b0" opacity="0.24"/><circle cx="333" cy="280" r="2.4" fill="#e8c9b0" opacity="0.13"/><circle cx="1431" cy="781" r="5.1" fill="#e8c9b0" opacity="0.18"/><circle cx="920" cy="110" r="5.3" fill="#e8c9b0" opacity="0.26"/><circle cx="848" cy="129" r="3.8" fill="#e8c9b0" opacity="0.12"/><circle cx="994" cy="349" r="3.4" fill="#e8c9b0" opacity="0.14"/><circle cx="962" cy="460" r="2.6" fill="#e8c9b0" opacity="0.12"/><circle cx="1044" cy="570" r="3.5" fill="#e8c9b0" opacity="0.30"/><circle cx="478" cy="639" r="5.7" fill="#e8c9b0" opacity="0.25"/><circle cx="674" cy="784" r="2.6" fill="#e8c9b0" opacity="0.30"/><circle cx="548" cy="138" r="3.7" fill="#e8c9b0" opacity="0.23"/><circle cx="311" cy="547" r="5.9" fill="#e8c9b0" opacity="0.27"/><circle cx="254" cy="583" r="2.2" fill="#e8c9b0" opacity="0.13"/><circle cx="277" cy="797" r="3.0" fill="#e8c9b0" opacity="0.16"/><circle cx="1572" cy="772" r="4.0" fill="#e8c9b0" opacity="0.23"/><circle cx="486" cy="752" r="4.5" fill="#e8c9b0" opacity="0.19"/><circle cx="980" cy="591" r="2.5" fill="#e8c9b0" opacity="0.28"/><circle cx="956" cy="698" r="5.7" fill="#e8c9b0" opacity="0.17"/><circle cx="333" cy="817" r="3.7" fill="#e8c9b0" opacity="0.23"/><circle cx="1422" cy="784" r="4.0" fill="#e8c9b0" opacity="0.22"/><circle cx="877" cy="76" r="5.8" fill="#e8c9b0" opacity="0.28"/><circle cx="498" cy="143" r="2.2" fill="#e8c9b0" opacity="0.22"/><circle cx="1645" cy="379" r="3.9" fill="#e8c9b0" opacity="0.17"/>
<rect x="90" y="90" width="18" height="120" fill="#b18077"/>
<foreignObject x="130" y="70" width="1200" height="400">
  <div xmlns="http://www.w3.org/1999/xhtml" style="font-family:Poppins,Arial,sans-serif;font-size:64px;font-weight:700;color:#fff;line-height:1.25">Importing Cast Iron Powder from India? Everything You Need to Know</div>
</foreignObject>
<text x="130" y="860" font-family="Poppins, Arial, sans-serif" font-size="30" font-weight="600" fill="#fff" opacity="0.7" letter-spacing="6">INDUSTRY INSIGHTS</text>
</svg>