<svg xmlns="http://www.w3.org/2000/svg" width="1672" height="941" viewBox="0 0 1672 941">
<defs><linearGradient id="g" x1="0" y1="0" x2="1" y2="1"><stop offset="0" stop-color="hsl(21,28%,30%)"/><stop offset="1" stop-color="hsl(31,30%,14%)"/></linearGradient></defs>
<rect width="1672" height="941" fill="url(#g)"/>
<circle cx="1420" cy="330" r="260" fill="#fff" opacity="0.06"/>
<path d="M0 941 L0 720 Q420 560 836 700 T1672 640 L1672 941 Z" fill="#000" opacity="0.25"/>
<circle cx="1572" cy="223" r="4.0" fill="#e8c9b0" opacity="0.14"/><circle cx="48" cy="145" r="4.6" fill="#e8c9b0" opacity="0.17"/><circle cx="1117" cy="671" r="4.2" fill="#e8c9b0" opacity="0.13"/><circle cx="188" cy="274" r="3.5" fill="#e8c9b0" opacity="0.28"/><circle cx="1199" cy="415" r="2.7" fill="#e8c9b0" opacity="0.19"/><circle cx="1535" cy="791" r="3.3" fill="#e8c9b0" opacity="0.18"/><circle cx="582" cy="638" r="5.4" fill="#e8c9b0" opacity="0.16"/><circle cx="946" cy="2" r="4.3" fill="#e8c9b0" opacity="0.13"/><circle cx="961" cy="250" r="5.1" fill="#e8c9b0" opacity="0.19"/><circle cx="1232" cy="534" r="3.4" fill="#e8c9b0" opacity="0.26"/><circle cx="673" cy="133" r="2.0" fill="#e8c9b0" opacity="0.20"/><circle cx="458" cy="298" r="5.2" fill="#e8c9b0" opacity="0.26"/><circle cx="1565" cy="388" r="5.3" fill="#e8c9b0" opacity="0.20"/><circle cx="1126" cy="465" r="5.1" fill="#e8c9b0" opacity="0.28"/><circle cx="431" cy="616" r="5.7" fill="#e8c9b0" opacity="0.22"/><circle cx="313" cy="744" r="4.4" fill="#e8c9b0" opacity="0.24"/><circle cx="257" cy="106" r="2.3" fill="#e8c9b0" opacity="0.22"/><circle cx="1492" cy="710" r="3.2" fill="#e8c9b0" opacity="0.18"/><circle cx="111" cy="29" r="5.5" fill="#e8c9b0" opacity="0.23"/><circle cx="361" cy="167" r="4.6" fill="#e8c9b0" opacity="0.28"/><circle cx="1086" cy="502" r="4.4" fill="#e8c9b0" opacity="0.28"/><circle cx="1195" cy="244" r="2.2" fill="#e8c9b0" opacity="0.29"/><circle cx="158" cy="522" r="4.4" fill="#e8c9b0" opacity="0.28"/><circle cx="1319" cy="369" r="5.4" fill="#e8c9b0" opacity="0.14"/><circle cx="1178" cy="937" r="5.5" fill="#e8c9b0" opacity="0.25"/><circle cx="796" cy="662" r="4.8" fill="#e8c9b0" opacity="0.26"/><circle cx="1462" cy="644" r="2.7" fill="#e8c9b0" opacity="0.22"/><circle cx="985" cy="59" r="5.8" fill="#e8c9b0" opacity="0.18"/><circle cx="1275" cy="224" r="4.8" fill="#e8c9b0" opacity="0.15"/><circle cx="291" cy="213" r="3.4" fill="#e8c9b0" opacity="0.16"/><circle cx="229" cy="900" r="3.9" fill="#e8c9b0" opacity="0.19"/><circle cx="273" cy="157" r="2.9" fill="#e8c9b0" opacity="0.25"/><circle cx="1122" cy="798" r="4.2" fill="#e8c9b0" opacity="0.21"/><circle cx="457" cy="645" r="3.4" fill="#e8c9b0" opacity="0.25"/><circle cx="672" cy="638" r="3.1" fill="#e8c9b0" opacity="0.28"/><circle cx="1027" cy="676" r="2.1" fill="#e8c9b0" opacity="0.15"/><circle cx="1199" cy="566" r="2.1" fill="#e8c9b0" opacity="0.17"/><circle cx="1542" cy="692" r="5.2" fill="#e8c9b0" opacity="0.22"/><circle cx="1669" cy="447" r="3.4" fill="#e8c9b0" opacity="0.17"/><circle cx="582" cy="446" r="4.0" fill="#e8c9b0" opacity="0.17"/><circle cx="715" cy="311" r="3.8" fill="#e8c9b0" opacity="0.23"/><circle cx="549" cy="230" r="5.2" fill="#e8c9b0" opacity="0.25"/><circle cx="254" cy="349" r="3.5" fill="#e8c9b0" opacity="0.15"/><circle cx="325" cy="453" r="5.8" fill="#e8c9b0" opacity="0.24"/><circle cx="1254" cy="670" r="5.6" fill="#e8c9b0" opacity="0.27"/><circle cx="733" cy="764" r="4.5" fill="#e8c9b0" opacity="0.24"/><circle cx="1107" cy="310" r="5.9" fill="#e8c9b0" opacity="0.29"/><circle cx="161" cy="291" r="3.2" fill="#e8c9b0" opacity="0.20"/><circle cx="1145" cy="878" r="5.9" fill="#e8c9b0" opacity="0.20"/><circle cx="866" cy="438" r="5.1" fill="#e8c9b0" opacity="0.30"/><circle cx="333" cy="274" r="5.2" fill="#e8c9b0" opacity="0.30"/><circle cx="1327" cy="845" r="4.8" fill="#e8c9b0" opacity="0.24"/><circle cx="898" cy="869" r="4.4" fill="#e8c9b0" opacity="0.25"/><circle cx="809" cy="211" r="3.6" fill="#e8c9b0" opacity="0.20"/><circle cx="287" cy="654" r="2.7" fill="#e8c9b0" opacity="0.22"/><circle cx="910" cy="856" r="2.7" fill="#e8c9b0" opacity="0.16"/><circle cx="1165" cy="756" r="2.6" fill="#e8c9b0" opacity="0.16"/><circle cx="113" cy="375" r="3.1" fill="#e8c9b0" opacity="0.27"/><circle cx="1170" cy="519" r="3.0" fill="#e8c9b0" opacity="0.16"/><circle cx="1472" cy="782" r="4.0" fill="#e8c9b0" opacity="0.17"/><circle cx="1515" cy="704" r="5.0" fill="#e8c9b0" opacity="0.20"/><circle cx="610" cy="756" r="4.3" fill="#e8c9b0" opacity="0.29"/><circle cx="663" cy="32" r="5.5" fill="#e8c9b0" opacity="0.26"/><circle cx="571" cy="388" r="5.9" fill="#e8c9b0" opacity="0.25"/><circle cx="131" cy="164" r="3.8" fill="#e8c9b0" opacity="0.26"/><circle cx="397" cy="821" r="4.2" fill="#e8c9b0" opacity="0.18"/><circle cx="908" cy="719" r="4.6" fill="#e8c9b0" opacity="0.26"/><circle cx="1099" cy="735" r="4.0" fill="#e8c9b0" opacity="0.17"/><circle cx="760" cy="123" r="2.4" fill="#e8c9b0" opacity="0.23"/><circle cx="1605" cy="14" r="5.8" fill="#e8c9b0" opacity="0.26"/><circle cx="1400" cy="624" r="2.2" fill="#e8c9b0" opacity="0.12"/><circle cx="624" cy="512" r="4.1" fill="#e8c9b0" opacity="0.30"/><circle cx="1168" cy="343" r="3.4" fill="#e8c9b0" opacity="0.20"/><circle cx="16" cy="584" r="3.2" fill="#e8c9b0" opacity="0.19"/><circle cx="1282" cy="234" r="2.7" fill="#e8c9b0" opacity="0.22"/><circle cx="1063" cy="46" r="5.7" fill="#e8c9b0" opacity="0.13"/><circle cx="92" cy="338" r="4.8" fill="#e8c9b0" opacity="0.20"/><circle cx="1421" cy="388" r="5.5" fill="#e8c9b0" opacity="0.19"/><circle cx="216" cy="845" r="4.2" fill="#e8c9b0" opacity="0.19"/><circle cx="922" cy="874" r="2.1" fill="#e8c9b0" opacity="0.20"/><circle cx="761" cy="548" r="2.2" fill="#e8c9b0" opacity="0.23"/><circle cx="419" cy="655" r="5.3" fill="#e8c9b0" opacity="0.12"/><circle cx="1170" cy="371" r="2.2" fill="#e8c9b0" opacity="0.22"/><circle cx="1271" cy="503" r="4.8" fill="#e8c9b0" opacity="0.16"/><circle cx="360" cy="713" r="4.9" fill="#e8c9b0" opacity="0.12"/><circle cx="750" cy="664" r="4.0" fill="#e8c9b0" opacity="0.18"/><circle cx="710" cy="824" r="3.1" fill="#e8c9b0" opacity="0.17"/><circle cx="182" cy="450" r="3.0" fill="#e8c9b0" opacity="0.17"/><circle cx="1408" cy="131" r="5.7" fill="#e8c9b0" opacity="0.28"/><circle cx="1666" cy="890" r="4.7" fill="#e8c9b0" opacity="0.19"/><circle cx="1109" cy="64" r="2.7" fill="#e8c9b0" opacity="0.24"/><circle cx="1406" cy="66" r="3.1" fill="#e8c9b0" opacity="0.24"/><circle cx="79" cy="468" r="4.9" fill="#e8c9b0" opacity="0.17"/><circle cx="576" cy="246" r="4.1" fill="#e8c9b0" opacity="0.15"/><circle cx="477" cy="672" r="2.5" fill="#e8c9b0" opacity="0.17"/><circle cx="327" cy="8" r="3.4" fill="#e8c9b0" opacity="0.26"/><circle cx="1586" cy="516" r="4.7" fill="#e8c9b0" opacity="0.16"/><circle cx="998" cy="438" r="4.5" fill="#e8c9b0" opacity="0.14"/><circle cx="1521" cy="375" r="3.8" fill="#e8c9b0" opacity="0.13"/><circle cx="1326" cy="151" r="2.5" fill="#e8c9b0" opacity="0.19"/><circle cx="348" cy="135" r="3.4" fill="#e8c9b0" opacity="0.14"/><circle cx="1195" cy="195" r="5.7" fill="#e8c9b0" opacity="0.17"/><circle cx="216" cy="100" r="3.8" fill="#e8c9b0" opacity="0.15"/><circle cx="1122" cy="343" r="2.1" fill="#e8c9b0" opacity="0.28"/><circle cx="834" cy="141" r="5.3" fill="#e8c9b0" opacity="0.13"/><circle cx="526" cy="202" r="2.5" fill="#e8c9b0" opacity="0.19"/><circle cx="904" cy="657" r="5.8" fill="#e8c9b0" opacity="0.30"/><circle cx="676" cy="326" r="3.6" fill="#e8c9b0" opacity="0.19"/><circle cx="1192" cy="815" r="4.7" fill="#e8c9b0" opacity="0.20"/><circle cx="1171" cy="717" r="4.9" fill="#e8c9b0" opacity="0.24"/><circle cx="1610" cy="84" r="5.2" fill="#e8c9b0" opacity="0.16"/><circle cx="337" cy="434" r="5.2" fill="#e8c9b0" opacity="0.16"/><circle cx="1553" cy="495" r="3.3" fill="#e8c9b0" opacity="0.19"/><circle cx="1487" cy="571" r="4.3" fill="#e8c9b0" opacity="0.15"/><circle cx="0" cy="621" r="2.7" fill="#e8c9b0" opacity="0.18"/><circle cx="1037" cy="936" r="3.1" fill="#e8c9b0" opacity="0.17"/><circle cx="767" cy="403" r="5.5" fill="#e8c9b0" opacity="0.12"/><circle cx="816" cy="746" r="2.7" fill="#e8c9b0" opacity="0.29"/><circle cx="1081" cy="32" r="4.0" fill="#e8c9b0" opacity="0.28"/><circle cx="606" cy="144" r="5.2" fill="#e8c9b0" opacity="0.17"/><circle cx="1328" cy="882" r="3.3" fill="#e8c9b0" opacity="0.22"/><circle cx="361" cy="797" r="3.9" fill="#e8c9b0" opacity="0.15"/><circle cx="363" cy="166" r="3.1" fill="#e8c9b0" opacity="0.18"/><circle cx="154" cy="795" r="4.3" fill="#e8c9b0" opacity="0.30"/><circle cx="28" cy="542" r="4.0" fill="#e8c9b0" opacity="0.22"/><circle cx="55" cy="597" r="2.0" fill="#e8c9b0" opacity="0.16"/><circle cx="1070" cy="638" r="2.8" fill="#e8c9b0" opacity="0.23"/><circle cx="713" cy="529" r="2.4" fill="#e8c9b0" opacity="0.20"/><circle cx="379" cy="250" r="2.3" fill="#e8c9b0" opacity="0.17"/><circle cx="557" cy="505" r="4.9" fill="#e8c9b0" opacity="0.13"/><circle cx="1203" cy="874" r="2.2" fill="#e8c9b0" opacity="0.16"/><circle cx="1180" cy="676" r="2.6" fill="#e8c9b0" opacity="0.17"/><circle cx="209" cy="446" r="3.6" fill="#e8c9b0" opacity="0.20"/><circle cx="1394" cy="579" r="3.6" fill="#e8c9b0" opacity="0.19"/><circle cx="351" cy="770" r="3.6" fill="#e8c9b0" opacity="0.20"/><circle cx="419" cy="225" r="4.5" fill="#e8c9b0" opacity="0.26"/><circle cx="539" cy="887" r="5.3" fill="#e8c9b0" opacity="0.15"/><circle cx="1531" cy="815" r="5.6" fill="#e8c9b0" opacity="0.28"/><circle cx="1614" cy="438" r="4.3" fill="#e8c9b0" opacity="0.14"/><circle cx="946" cy="585" r="2.4" fill="#e8c9b0" opacity="0.24"/><circle cx="1027" cy="640" r="3.2" fill="#e8c9b0" opacity="0.14"/><circle cx="370" cy="844" r="5.9" fill="#e8c9b0" opacity="0.24"/><circle cx="571" cy="879" r="4.0" fill="#e8c9b0" opacity="0.21"/><circle cx="1268" cy="609" r="3.2" fill="#e8c9b0" opacity="0.16"/><circle cx="89" cy="584" r="3.7" fill="#e8c9b0" opacity="0.24"/><circle cx="6" cy="469" r="2.3" fill="#e8c9b0" opacity="0.15"/><circle cx="137" cy="50" r="2.9" fill="#e8c9b0" opacity="0.22"/><circle cx="71" cy="502" r="3.3" fill="#e8c9b0" opacity="0.23"/><circle cx="417" cy="15" r="5.2" fill="#e8c9b0" opacity="0.20"/><circle cx="1658" cy="697" r="3.0" fill="#e8c9b0" opacity="0.14"/><circle cx="1063" cy="818" r="2.5" fill="#e8c9b0" opacity="0.25"/><circle cx="354" cy="701" r="3.6" fill="#e8c9b0" opacity="0.23"/><circle cx="919" cy="434" r="2.8" fill="#e8c9b0" opacity="0.25"/><circle cx="594" cy="231" r="4.2" fill="#e8c9b0" opacity="0.14"/><circle cx="1525" cy="898" r="4.9" fill="#e8c9b0" opacity="0.15"/><circle cx="1401" cy="620" r="3.1" fill="#e8c9b0" opacity="0.20"/><circle cx="439" cy="438" r="5.3" fill="#e8c9b0" opacity="0.23"/><circle cx="424" cy="264" r="2.5" fill="#e8c9b0" opacity="0.17"/><circle cx="1217" cy="343" r="3.1" fill="#e8c9b0" opacity="0.29"/><circle cx="517" cy="931" r="5.9" fill="#e8c9b0" opacity="0.28"/><circle cx="553" cy="744" r="4.1" fill="#e8c9b0" opacity="0.14"/><circle cx="765" cy="434" r="5.5" fill="#e8c9b0" opacity="0.29"/><circle cx="668" cy="229" r="2.3" fill="#e8c9b0" opacity="0.26"/><circle cx="1621" cy="441" r="3.9" fill="#e8c9b0" opacity="0.17"/><circle cx="1563" cy="300" r="4.7" fill="#e8c9b0" opacity="0.19"/><circle cx="1408" cy="147" r="2.4" fill="#e8c9b0" opacity="0.19"/><circle cx="1460" cy="882" r="5.5" fill="#e8c9b0" opacity="0.25"/><circle cx="1485" cy="462" r="3.4" fill="#e8c9b0" opacity="0.30"/><circle cx="1290" cy="912" r="5.4" fill="#e8c9b0" opacity="0.15"/><circle cx="694" cy="382" r="5.7" fill="#e8c9b0" opacity="0.21"/><circle cx="956" cy="937" r="2.3" fill="#e8c9b0" opacity="0.27"/><circle cx="120" cy="594" r="2.5" fill="#e8c9b0" opacity="0.28"/><circle cx="585" cy="719" r="2.7" fill="#e8c9b0" opacity="0.16"/><circle cx="1249" cy="251" r="5.9" fill="#e8c9b0" opacity="0.26"/><circle cx="784" cy="133" r="4.8" fill="#e8c9b0" opacity="0.22"/><circle cx="835" cy="780" r="2.1" fill="#e8c9b0" opacity="0.24"/><circle cx="1488" cy="918" r="4.3" fill="#e8c9b0" opacity="0.22"/><circle cx="455" cy="501" r="3.3" fill="#e8c9b0" opacity="0.15"/><circle cx="890" cy="166" r="3.0" fill="#e8c9b0" opacity="0.25"/><circle cx="452" cy="25" r="5.3" fill="#e8c9b0" opacity="0.16"/><circle cx="326" cy="670" r="4.7" fill="#e8c9b0" opacity="0.24"/><circle cx="438" cy="737" r="4.9" fill="#e8c9b0" opacity="0.16"/><circle cx="107" cy="414" r="4.1" fill="#e8c9b0" opacity="0.23"/><circle cx="971" cy="816" r="5.7" fill="#e8c9b0" opacity="0.17"/><circle cx="475" cy="697" r="5.3" fill="#e8c9b0" opacity="0.25"/><circle cx="1134" cy="807" r="5.1" fill="#e8c9b0" opacity="0.15"/><circle cx="563" cy="219" r="5.3" fill="#e8c9b0" opacity="0.21"/><circle cx="498" cy="143" r="2.5" fill="#e8c9b0" opacity="0.28"/><circle cx="1636" cy="752" r="2.1" fill="#e8c9b0" opacity="0.23"/><circle cx="771" cy="314" r="5.8" fill="#e8c9b0" opacity="0.15"/><circle cx="170" cy="323" r="4.6" fill="#e8c9b0" opacity="0.22"/><circle cx="595" cy="891" r="5.3" fill="#e8c9b0" opacity="0.27"/><circle cx="1145" cy="350" r="3.2" fill="#e8c9b0" opacity="0.14"/><circle cx="647" cy="244" r="3.5" fill="#e8c9b0" opacity="0.28"/><circle cx="1069" cy="162" r="5.0" fill="#e8c9b0" opacity="0.21"/><circle cx="1357" cy="707" r="2.1" fill="#e8c9b0" opacity="0.13"/><circle cx="565" cy="380" r="5.2" fill="#e8c9b0" opacity="0.18"/><circle cx="488" cy="273" r="3.9" fill="#e8c9b0" opacity="0.21"/><circle cx="502" cy="315" r="2.9" fill="#e8c9b0" opacity="0.13"/><circle cx="1127" cy="827" r="4.0" fill="#e8c9b0" opacity="0.21"/>
<rect x="90" y="90" width="18" height="120" fill="#b18077"/>
<foreignObject x="130" y="70" width="1200" height="400">
  <div xmlns="http://www.w3.org/1999/xhtml" style="font-family:Poppins,Arial,sans-serif;font-size:64px;font-weight:700;color:#fff;line-height:1.25">Iron Powder Market Trends 2026: Automotive and Additive Manufacturing Growth</div>
</foreignObject>
<text x="130" y="860" font-family="Poppins, Arial, sans-serif" font-size="30" font-weight="600" fill="#fff" opacity="0.7" letter-spacing="6">INDUSTRY INSIGHTS</text>
</svg>