<svg xmlns="http://www.w3.org/2000/svg" width="1672" height="941" viewBox="0 0 1672 941">
<defs><linearGradient id="g" x1="0" y1="0" x2="1" y2="1"><stop offset="0" stop-color="hsl(12,28%,30%)"/><stop offset="1" stop-color="hsl(22,30%,14%)"/></linearGradient></defs>
<rect width="1672" height="941" fill="url(#g)"/>
<circle cx="1340" cy="330" r="260" fill="#fff" opacity="0.06"/>
<path d="M0 941 L0 720 Q420 560 836 700 T1672 640 L1672 941 Z" fill="#000" opacity="0.25"/>
<circle cx="527" cy="724" r="2.4" fill="#e8c9b0" opacity="0.17"/><circle cx="653" cy="843" r="3.4" fill="#e8c9b0" opacity="0.23"/><circle cx="168" cy="162" r="4.8" fill="#e8c9b0" opacity="0.22"/><circle cx="1204" cy="416" r="4.0" fill="#e8c9b0" opacity="0.16"/><circle cx="374" cy="48" r="2.7" fill="#e8c9b0" opacity="0.20"/><circle cx="989" cy="694" r="4.6" fill="#e8c9b0" opacity="0.27"/><circle cx="1233" cy="8" r="5.6" fill="#e8c9b0" opacity="0.21"/><circle cx="728" cy="82" r="2.6" fill="#e8c9b0" opacity="0.13"/><circle cx="154" cy="741" r="3.5" fill="#e8c9b0" opacity="0.26"/><circle cx="1646" cy="586" r="2.8" fill="#e8c9b0" opacity="0.15"/><circle cx="1613" cy="463" r="3.3" fill="#e8c9b0" opacity="0.29"/><circle cx="283" cy="826" r="2.0" fill="#e8c9b0" opacity="0.20"/><circle cx="562" cy="916" r="3.8" fill="#e8c9b0" opacity="0.22"/><circle cx="1350" cy="591" r="5.3" fill="#e8c9b0" opacity="0.27"/><circle cx="112" cy="130" r="3.6" fill="#e8c9b0" opacity="0.19"/><circle cx="1368" cy="134" r="5.9" fill="#e8c9b0" opacity="0.27"/><circle cx="1087" cy="244" r="5.1" fill="#e8c9b0" opacity="0.25"/><circle cx="1443" cy="285" r="5.2" fill="#e8c9b0" opacity="0.16"/><circle cx="758" cy="129" r="3.0" fill="#e8c9b0" opacity="0.29"/><circle cx="1670" cy="146" r="4.6" fill="#e8c9b0" opacity="0.12"/><circle cx="602" cy="413" r="2.9" fill="#e8c9b0" opacity="0.13"/><circle cx="1121" cy="846" r="2.8" fill="#e8c9b0" opacity="0.19"/><circle cx="1245" cy="674" r="4.8" fill="#e8c9b0" opacity="0.18"/><circle cx="1585" cy="747" r="5.2" fill="#e8c9b0" opacity="0.23"/><circle cx="288" cy="890" r="4.4" fill="#e8c9b0" opacity="0.21"/><circle cx="1135" cy="728" r="2.6" fill="#e8c9b0" opacity="0.15"/><circle cx="590" cy="127" r="4.8" fill="#e8c9b0" opacity="0.15"/><circle cx="1037" cy="582" r="5.0" fill="#e8c9b0" opacity="0.26"/><circle cx="881" cy="174" r="5.6" fill="#e8c9b0" opacity="0.23"/><circle cx="839" cy="817" r="5.3" fill="#e8c9b0" opacity="0.23"/><circle cx="654" cy="195" r="2.2" fill="#e8c9b0" opacity="0.13"/><circle cx="39" cy="638" r="2.5" fill="#e8c9b0" opacity="0.25"/><circle cx="464" cy="185" r="5.8" fill="#e8c9b0" opacity="0.19"/><circle cx="169" cy="610" r="4.6" fill="#e8c9b0" opacity="0.29"/><circle cx="1326" cy="364" r="4.3" fill="#e8c9b0" opacity="0.15"/><circle cx="565" cy="440" r="2.9" fill="#e8c9b0" opacity="0.27"/><circle cx="1314" cy="361" r="5.3" fill="#e8c9b0" opacity="0.19"/><circle cx="308" cy="238" r="2.5" fill="#e8c9b0" opacity="0.25"/><circle cx="514" cy="58" r="2.3" fill="#e8c9b0" opacity="0.20"/><circle cx="1460" cy="223" r="5.3" fill="#e8c9b0" opacity="0.26"/><circle cx="134" cy="276" r="5.6" fill="#e8c9b0" opacity="0.26"/><circle cx="1064" cy="18" r="3.0" fill="#e8c9b0" opacity="0.25"/><circle cx="237" cy="195" r="2.3" fill="#e8c9b0" opacity="0.21"/><circle cx="333" cy="765" r="2.3" fill="#e8c9b0" opacity="0.25"/><circle cx="1563" cy="235" r="3.5" fill="#e8c9b0" opacity="0.26"/><circle cx="344" cy="481" r="2.6" fill="#e8c9b0" opacity="0.19"/><circle cx="844" cy="39" r="5.6" fill="#e8c9b0" opacity="0.20"/><circle cx="137" cy="90" r="3.1" fill="#e8c9b0" opacity="0.13"/><circle cx="1180" cy="196" r="4.0" fill="#e8c9b0" opacity="0.21"/><circle cx="421" cy="599" r="3.4" fill="#e8c9b0" opacity="0.24"/><circle cx="924" cy="610" r="5.8" fill="#e8c9b0" opacity="0.26"/><circle cx="1358" cy="760" r="5.1" fill="#e8c9b0" opacity="0.20"/><circle cx="580" cy="940" r="3.3" fill="#e8c9b0" opacity="0.20"/><circle cx="499" cy="68" r="4.2" fill="#e8c9b0" opacity="0.17"/><circle cx="287" cy="848" r="3.2" fill="#e8c9b0" opacity="0.21"/><circle cx="1649" cy="896" r="5.6" fill="#e8c9b0" opacity="0.25"/><circle cx="573" cy="348" r="5.2" fill="#e8c9b0" opacity="0.20"/><circle cx="1369" cy="248" r="4.7" fill="#e8c9b0" opacity="0.29"/><circle cx="764" cy="20" r="3.2" fill="#e8c9b0" opacity="0.16"/><circle cx="1159" cy="339" r="3.6" fill="#e8c9b0" opacity="0.19"/><circle cx="1329" cy="472" r="2.1" fill="#e8c9b0" opacity="0.15"/><circle cx="298" cy="611" r="2.9" fill="#e8c9b0" opacity="0.19"/><circle cx="1482" cy="581" r="5.3" fill="#e8c9b0" opacity="0.20"/><circle cx="813" cy="92" r="2.5" fill="#e8c9b0" opacity="0.21"/><circle cx="1215" cy="25" r="2.7" fill="#e8c9b0" opacity="0.23"/><circle cx="410" cy="312" r="4.4" fill="#e8c9b0" opacity="0.24"/><circle cx="95" cy="74" r="3.8" fill="#e8c9b0" opacity="0.16"/><circle cx="238" cy="306" r="3.9" fill="#e8c9b0" opacity="0.24"/><circle cx="1622" cy="923" r="5.3" fill="#e8c9b0" opacity="0.18"/><circle cx="186" cy="233" r="2.8" fill="#e8c9b0" opacity="0.27"/><circle cx="1311" cy="542" r="2.3" fill="#e8c9b0" opacity="0.16"/><circle cx="1058" cy="332" r="3.4" fill="#e8c9b0" opacity="0.25"/><circle cx="2" cy="283" r="4.1" fill="#e8c9b0" opacity="0.22"/><circle cx="892" cy="84" r="2.4" fill="#e8c9b0" opacity="0.16"/><circle cx="70" cy="864" r="5.5" fill="#e8c9b0" opacity="0.13"/><circle cx="1336" cy="135" r="2.1" fill="#e8c9b0" opacity="0.17"/><circle cx="90" cy="835" r="3.4" fill="#e8c9b0" opacity="0.28"/><circle cx="597" cy="937" r="5.3" fill="#e8c9b0" opacity="0.30"/><circle cx="1034" cy="427" r="5.8" fill="#e8c9b0" opacity="0.20"/><circle cx="187" cy="75" r="4.4" fill="#e8c9b0" opacity="0.19"/><circle cx="828" cy="60" r="4.2" fill="#e8c9b0" opacity="0.30"/><circle cx="428" cy="597" r="4.5" fill="#e8c9b0" opacity="0.29"/><circle cx="713" cy="854" r="3.1" fill="#e8c9b0" opacity="0.25"/><circle cx="518" cy="356" r="5.6" fill="#e8c9b0" opacity="0.26"/><circle cx="684" cy="877" r="3.1" fill="#e8c9b0" opacity="0.29"/><circle cx="24" cy="834" r="4.0" fill="#e8c9b0" opacity="0.23"/><circle cx="1486" cy="159" r="2.8" fill="#e8c9b0" opacity="0.25"/><circle cx="1472" cy="724" r="3.4" fill="#e8c9b0" opacity="0.15"/><circle cx="1067" cy="459" r="3.5" fill="#e8c9b0" opacity="0.29"/><circle cx="1466" cy="616" r="4.2" fill="#e8c9b0" opacity="0.23"/><circle cx="1496" cy="411" r="5.7" fill="#e8c9b0" opacity="0.24"/><circle cx="111" cy="599" r="3.8" fill="#e8c9b0" opacity="0.17"/><circle cx="1648" cy="23" r="2.3" fill="#e8c9b0" opacity="0.30"/><circle cx="772" cy="778" r="4.5" fill="#e8c9b0" opacity="0.27"/><circle cx="18" cy="2" r="4.8" fill="#e8c9b0" opacity="0.24"/><circle cx="845" cy="89" r="2.1" fill="#e8c9b0" opacity="0.17"/><circle cx="241" cy="696" r="3.4" fill="#e8c9b0" opacity="0.15"/><circle cx="37" cy="345" r="2.5" fill="#e8c9b0" opacity="0.29"/><circle cx="201" cy="668" r="3.9" fill="#e8c9b0" opacity="0.21"/><circle cx="21" cy="875" r="5.7" fill="#e8c9b0" opacity="0.12"/><circle cx="1020" cy="380" r="5.8" fill="#e8c9b0" opacity="0.16"/><circle cx="593" cy="689" r="2.5" fill="#e8c9b0" opacity="0.12"/><circle cx="1565" cy="640" r="4.7" fill="#e8c9b0" opacity="0.28"/><circle cx="674" cy="576" r="2.8" fill="#e8c9b0" opacity="0.21"/><circle cx="99" cy="928" r="2.5" fill="#e8c9b0" opacity="0.27"/><circle cx="597" cy="506" r="2.7" fill="#e8c9b0" opacity="0.15"/><circle cx="1198" cy="555" r="5.0" fill="#e8c9b0" opacity="0.16"/><circle cx="895" cy="256" r="2.8" fill="#e8c9b0" opacity="0.21"/><circle cx="461" cy="341" r="5.5" fill="#e8c9b0" opacity="0.30"/><circle cx="194" cy="748" r="5.6" fill="#e8c9b0" opacity="0.27"/><circle cx="677" cy="875" r="4.5" fill="#e8c9b0" opacity="0.16"/><circle cx="593" cy="130" r="2.9" fill="#e8c9b0" opacity="0.29"/><circle cx="465" cy="33" r="5.5" fill="#e8c9b0" opacity="0.16"/><circle cx="1345" cy="628" r="3.9" fill="#e8c9b0" opacity="0.27"/><circle cx="602" cy="511" r="5.7" fill="#e8c9b0" opacity="0.26"/><circle cx="833" cy="580" r="3.3" fill="#e8c9b0" opacity="0.30"/><circle cx="835" cy="936" r="5.6" fill="#e8c9b0" opacity="0.18"/><circle cx="528" cy="753" r="4.1" fill="#e8c9b0" opacity="0.30"/><circle cx="764" cy="614" r="3.0" fill="#e8c9b0" opacity="0.28"/><circle cx="2" cy="351" r="3.1" fill="#e8c9b0" opacity="0.24"/><circle cx="1276" cy="27" r="2.9" fill="#e8c9b0" opacity="0.19"/><circle cx="1482" cy="899" r="3.7" fill="#e8c9b0" opacity="0.22"/><circle cx="1007" cy="262" r="2.2" fill="#e8c9b0" opacity="0.21"/><circle cx="1509" cy="148" r="5.3" fill="#e8c9b0" opacity="0.24"/><circle cx="711" cy="303" r="2.4" fill="#e8c9b0" opacity="0.25"/><circle cx="1168" cy="681" r="3.5" fill="#e8c9b0" opacity="0.15"/><circle cx="938" cy="575" r="4.3" fill="#e8c9b0" opacity="0.23"/><circle cx="1480" cy="896" r="4.3" fill="#e8c9b0" opacity="0.29"/><circle cx="210" cy="841" r="5.6" fill="#e8c9b0" opacity="0.15"/><circle cx="160" cy="395" r="3.5" fill="#e8c9b0" opacity="0.22"/><circle cx="1634" cy="514" r="2.1" fill="#e8c9b0" opacity="0.22"/><circle cx="1575" cy="461" r="2.6" fill="#e8c9b0" opacity="0.27"/><circle cx="1588" cy="60" r="2.7" fill="#e8c9b0" opacity="0.25"/><circle cx="634" cy="232" r="4.6" fill="#e8c9b0" opacity="0.26"/><circle cx="379" cy="120" r="2.0" fill="#e8c9b0" opacity="0.30"/><circle cx="918" cy="580" r="3.6" fill="#e8c9b0" opacity="0.13"/><circle cx="11" cy="172" r="3.7" fill="#e8c9b0" opacity="0.25"/><circle cx="1646" cy="651" r="2.5" fill="#e8c9b0" opacity="0.17"/><circle cx="468" cy="371" r="4.4" fill="#e8c9b0" opacity="0.14"/><circle cx="1263" cy="858" r="4.4" fill="#e8c9b0" opacity="0.28"/><circle cx="552" cy="567" r="4.4" fill="#e8c9b0" opacity="0.17"/><circle cx="535" cy="428" r="2.9" fill="#e8c9b0" opacity="0.24"/><circle cx="1210" cy="867" r="4.1" fill="#e8c9b0" opacity="0.27"/><circle cx="1357" cy="571" r="4.4" fill="#e8c9b0" opacity="0.25"/><circle cx="771" cy="876" r="5.7" fill="#e8c9b0" opacity="0.27"/><circle cx="102" cy="496" r="5.7" fill="#e8c9b0" opacity="0.29"/><circle cx="135" cy="482" r="2.5" fill="#e8c9b0" opacity="0.27"/><circle cx="133" cy="130" r="3.8" fill="#e8c9b0" opacity="0.22"/><circle cx="613" cy="30" r="3.3" fill="#e8c9b0" opacity="0.29"/><circle cx="787" cy="427" r="5.3" fill="#e8c9b0" opacity="0.26"/><circle cx="944" cy="886" r="2.6" fill="#e8c9b0" opacity="0.23"/><circle cx="478" cy="748" r="3.1" fill="#e8c9b0" opacity="0.15"/><circle cx="144" cy="215" r="5.8" fill="#e8c9b0" opacity="0.16"/><circle cx="426" cy="902" r="5.6" fill="#e8c9b0" opacity="0.22"/><circle cx="639" cy="738" r="2.2" fill="#e8c9b0" opacity="0.27"/><circle cx="1324" cy="650" r="3.0" fill="#e8c9b0" opacity="0.24"/><circle cx="1086" cy="409" r="4.5" fill="#e8c9b0" opacity="0.22"/><circle cx="835" cy="303" r="3.1" fill="#e8c9b0" opacity="0.15"/><circle cx="250" cy="684" r="2.9" fill="#e8c9b0" opacity="0.26"/><circle cx="618" cy="347" r="3.2" fill="#e8c9b0" opacity="0.17"/><circle cx="407" cy="22" r="5.8" fill="#e8c9b0" opacity="0.22"/><circle cx="161" cy="274" r="2.9" fill="#e8c9b0" opacity="0.19"/><circle cx="428" cy="150" r="4.9" fill="#e8c9b0" opacity="0.22"/><circle cx="61" cy="673" r="4.7" fill="#e8c9b0" opacity="0.15"/><circle cx="801" cy="827" r="3.1" fill="#e8c9b0" opacity="0.23"/><circle cx="940" cy="648" r="4.3" fill="#e8c9b0" opacity="0.20"/><circle cx="895" cy="182" r="2.7" fill="#e8c9b0" opacity="0.16"/><circle cx="1122" cy="321" r="5.1" fill="#e8c9b0" opacity="0.12"/><circle cx="288" cy="149" r="5.7" fill="#e8c9b0" opacity="0.16"/><circle cx="979" cy="290" r="4.1" fill="#e8c9b0" opacity="0.18"/><circle cx="270" cy="535" r="4.1" fill="#e8c9b0" opacity="0.29"/><circle cx="362" cy="369" r="4.1" fill="#e8c9b0" opacity="0.28"/><circle cx="138" cy="898" r="3.7" fill="#e8c9b0" opacity="0.27"/><circle cx="929" cy="589" r="4.4" fill="#e8c9b0" opacity="0.17"/><circle cx="1569" cy="815" r="2.5" fill="#e8c9b0" opacity="0.24"/><circle cx="1437" cy="688" r="2.9" fill="#e8c9b0" opacity="0.18"/><circle cx="494" cy="502" r="5.4" fill="#e8c9b0" opacity="0.15"/><circle cx="209" cy="703" r="5.3" fill="#e8c9b0" opacity="0.24"/><circle cx="1449" cy="519" r="3.8" fill="#e8c9b0" opacity="0.26"/><circle cx="1192" cy="40" r="2.1" fill="#e8c9b0" opacity="0.18"/><circle cx="976" cy="141" r="3.7" fill="#e8c9b0" opacity="0.25"/><circle cx="964" cy="17" r="5.4" fill="#e8c9b0" opacity="0.15"/><circle cx="1599" cy="826" r="5.6" fill="#e8c9b0" opacity="0.26"/><circle cx="1510" cy="59" r="2.9" fill="#e8c9b0" opacity="0.29"/><circle cx="1096" cy="137" r="3.0" fill="#e8c9b0" opacity="0.27"/><circle cx="646" cy="219" r="5.3" fill="#e8c9b0" opacity="0.14"/><circle cx="1166" cy="741" r="4.7" fill="#e8c9b0" opacity="0.19"/><circle cx="239" cy="319" r="2.5" fill="#e8c9b0" opacity="0.17"/><circle cx="1424" cy="825" r="2.4" fill="#e8c9b0" opacity="0.15"/><circle cx="726" cy="86" r="5.3" fill="#e8c9b0" opacity="0.24"/><circle cx="1498" cy="858" r="5.0" fill="#e8c9b0" opacity="0.14"/><circle cx="729" cy="742" r="2.4" fill="#e8c9b0" opacity="0.27"/><circle cx="980" cy="86" r="4.1" fill="#e8c9b0" opacity="0.19"/><circle cx="248" cy="605" r="5.8" fill="#e8c9b0" opacity="0.28"/><circle cx="122" cy="101" r="5.8" fill="#e8c9b0" opacity="0.26"/><circle cx="406" cy="612" r="4.1" fill="#e8c9b0" opacity="0.18"/><circle cx="1364" cy="194" r="4.7" fill="#e8c9b0" opacity="0.19"/><circle cx="598" cy="290" r="2.5" fill="#e8c9b0" opacity="0.30"/><circle cx="337" cy="16" r="3.8" fill="#e8c9b0" opacity="0.29"/><circle cx="239" cy="308" r="5.8" fill="#e8c9b0" opacity="0.22"/>
<rect x="90" y="90" width="18" height="120" fill="#b18077"/>
<foreignObject x="130" y="70" width="1200" height="400">
  <div xmlns="http://www.w3.org/1999/xhtml" style="font-family:Poppins,Arial,sans-serif;font-size:64px;font-weight:700;color:#fff;line-height:1.25">What Is Cast Iron Powder? Types, Production and Key Benefits</div>
</foreignObject>
<text x="130" y="860" font-family="Poppins, Arial, sans-serif" font-size="30" font-weight="600" fill="#fff" opacity="0.7" letter-spacing="6">INDUSTRY INSIGHTS</text>
</svg>